<mxfile host="65bd71144e">
    <diagram name="Page-1" id="dk4Yydg6AnEiUxmU9oOU">
        <mxGraphModel dx="2492" dy="1593" grid="1" gridSize="10" guides="1" tooltips="1" connect="1" arrows="1" fold="1" page="1" pageScale="1" pageWidth="850" pageHeight="1100" math="0" shadow="0">
            <root>
                <mxCell id="0"/>
                <mxCell id="1" parent="0"/>
                <mxCell id="y_2Z9cbgFEfBiP4_PbCz-76" value="" style="edgeStyle=none;rounded=0;orthogonalLoop=1;jettySize=auto;html=1;endArrow=block;endFill=0;" parent="1" source="3_p0a6_mJ6wkiOOG4HJC-66" target="y_2Z9cbgFEfBiP4_PbCz-71" edge="1">
                    <mxGeometry relative="1" as="geometry"/>
                </mxCell>
                <mxCell id="y_2Z9cbgFEfBiP4_PbCz-75" style="edgeStyle=none;rounded=0;orthogonalLoop=1;jettySize=auto;html=1;endArrow=block;endFill=0;" parent="1" source="3_p0a6_mJ6wkiOOG4HJC-72" target="y_2Z9cbgFEfBiP4_PbCz-71" edge="1">
                    <mxGeometry relative="1" as="geometry"/>
                </mxCell>
                <mxCell id="3_p0a6_mJ6wkiOOG4HJC-3" value="MARSA.ma" style="shape=rect;html=1;verticalAlign=top;fontStyle=1;whiteSpace=wrap;align=center;" parent="1" vertex="1">
                    <mxGeometry x="250" y="-30" width="990" height="6170" as="geometry"/>
                </mxCell>
                <mxCell id="3_p0a6_mJ6wkiOOG4HJC-76" style="rounded=0;orthogonalLoop=1;jettySize=auto;html=1;exitX=0.5;exitY=0.5;exitDx=0;exitDy=0;exitPerimeter=0;entryX=0;entryY=0.5;entryDx=0;entryDy=0;endArrow=none;endFill=0;" parent="1" source="3_p0a6_mJ6wkiOOG4HJC-4" target="3_p0a6_mJ6wkiOOG4HJC-5" edge="1">
                    <mxGeometry relative="1" as="geometry"/>
                </mxCell>
                <mxCell id="3_p0a6_mJ6wkiOOG4HJC-77" style="edgeStyle=none;rounded=0;orthogonalLoop=1;jettySize=auto;html=1;exitX=0.5;exitY=0.5;exitDx=0;exitDy=0;exitPerimeter=0;entryX=0;entryY=0.5;entryDx=0;entryDy=0;endArrow=none;endFill=0;" parent="1" source="3_p0a6_mJ6wkiOOG4HJC-4" target="3_p0a6_mJ6wkiOOG4HJC-6" edge="1">
                    <mxGeometry relative="1" as="geometry"/>
                </mxCell>
                <mxCell id="3_p0a6_mJ6wkiOOG4HJC-78" style="edgeStyle=none;rounded=0;orthogonalLoop=1;jettySize=auto;html=1;exitX=0.5;exitY=0.5;exitDx=0;exitDy=0;exitPerimeter=0;endArrow=none;endFill=0;entryX=0;entryY=0.5;entryDx=0;entryDy=0;" parent="1" source="3_p0a6_mJ6wkiOOG4HJC-4" target="3_p0a6_mJ6wkiOOG4HJC-8" edge="1">
                    <mxGeometry relative="1" as="geometry">
                        <mxPoint x="100" y="1227.7777099609375" as="targetPoint"/>
                    </mxGeometry>
                </mxCell>
                <mxCell id="3_p0a6_mJ6wkiOOG4HJC-79" style="edgeStyle=none;rounded=0;orthogonalLoop=1;jettySize=auto;html=1;exitX=0.5;exitY=0.5;exitDx=0;exitDy=0;exitPerimeter=0;entryX=0;entryY=0.5;entryDx=0;entryDy=0;endArrow=none;endFill=0;" parent="1" source="3_p0a6_mJ6wkiOOG4HJC-4" target="3_p0a6_mJ6wkiOOG4HJC-7" edge="1">
                    <mxGeometry relative="1" as="geometry"/>
                </mxCell>
                <mxCell id="3_p0a6_mJ6wkiOOG4HJC-80" style="edgeStyle=none;rounded=0;orthogonalLoop=1;jettySize=auto;html=1;exitX=0.5;exitY=0.5;exitDx=0;exitDy=0;exitPerimeter=0;entryX=0;entryY=0.5;entryDx=0;entryDy=0;endArrow=none;endFill=0;" parent="1" source="3_p0a6_mJ6wkiOOG4HJC-4" target="3_p0a6_mJ6wkiOOG4HJC-9" edge="1">
                    <mxGeometry relative="1" as="geometry"/>
                </mxCell>
                <mxCell id="3_p0a6_mJ6wkiOOG4HJC-81" style="edgeStyle=none;rounded=0;orthogonalLoop=1;jettySize=auto;html=1;exitX=0.5;exitY=0.5;exitDx=0;exitDy=0;exitPerimeter=0;entryX=0;entryY=0.5;entryDx=0;entryDy=0;endArrow=none;endFill=0;" parent="1" source="3_p0a6_mJ6wkiOOG4HJC-4" target="3_p0a6_mJ6wkiOOG4HJC-10" edge="1">
                    <mxGeometry relative="1" as="geometry"/>
                </mxCell>
                <mxCell id="3_p0a6_mJ6wkiOOG4HJC-82" style="edgeStyle=none;rounded=0;orthogonalLoop=1;jettySize=auto;html=1;exitX=0.5;exitY=0.5;exitDx=0;exitDy=0;exitPerimeter=0;entryX=0;entryY=0.5;entryDx=0;entryDy=0;endArrow=none;endFill=0;" parent="1" source="3_p0a6_mJ6wkiOOG4HJC-4" target="3_p0a6_mJ6wkiOOG4HJC-12" edge="1">
                    <mxGeometry relative="1" as="geometry"/>
                </mxCell>
                <mxCell id="3_p0a6_mJ6wkiOOG4HJC-83" style="edgeStyle=none;rounded=0;orthogonalLoop=1;jettySize=auto;html=1;exitX=0.5;exitY=0.5;exitDx=0;exitDy=0;exitPerimeter=0;entryX=0;entryY=0.5;entryDx=0;entryDy=0;endArrow=none;endFill=0;" parent="1" source="3_p0a6_mJ6wkiOOG4HJC-4" target="3_p0a6_mJ6wkiOOG4HJC-11" edge="1">
                    <mxGeometry relative="1" as="geometry"/>
                </mxCell>
                <mxCell id="3_p0a6_mJ6wkiOOG4HJC-84" style="edgeStyle=none;rounded=0;orthogonalLoop=1;jettySize=auto;html=1;exitX=0.5;exitY=0.5;exitDx=0;exitDy=0;exitPerimeter=0;entryX=0;entryY=0.5;entryDx=0;entryDy=0;endArrow=none;endFill=0;" parent="1" source="3_p0a6_mJ6wkiOOG4HJC-4" target="3_p0a6_mJ6wkiOOG4HJC-14" edge="1">
                    <mxGeometry relative="1" as="geometry"/>
                </mxCell>
                <mxCell id="3_p0a6_mJ6wkiOOG4HJC-85" style="edgeStyle=none;rounded=0;orthogonalLoop=1;jettySize=auto;html=1;exitX=0.5;exitY=0.5;exitDx=0;exitDy=0;exitPerimeter=0;entryX=0;entryY=0.5;entryDx=0;entryDy=0;endArrow=none;endFill=0;" parent="1" source="3_p0a6_mJ6wkiOOG4HJC-4" target="3_p0a6_mJ6wkiOOG4HJC-15" edge="1">
                    <mxGeometry relative="1" as="geometry"/>
                </mxCell>
                <mxCell id="3_p0a6_mJ6wkiOOG4HJC-86" style="edgeStyle=none;rounded=0;orthogonalLoop=1;jettySize=auto;html=1;exitX=0.5;exitY=0.5;exitDx=0;exitDy=0;exitPerimeter=0;entryX=0;entryY=0.5;entryDx=0;entryDy=0;endArrow=none;endFill=0;" parent="1" source="3_p0a6_mJ6wkiOOG4HJC-4" target="3_p0a6_mJ6wkiOOG4HJC-17" edge="1">
                    <mxGeometry relative="1" as="geometry"/>
                </mxCell>
                <mxCell id="3_p0a6_mJ6wkiOOG4HJC-87" style="edgeStyle=none;rounded=0;orthogonalLoop=1;jettySize=auto;html=1;exitX=0.5;exitY=0.5;exitDx=0;exitDy=0;exitPerimeter=0;entryX=0;entryY=0.5;entryDx=0;entryDy=0;endArrow=none;endFill=0;" parent="1" source="3_p0a6_mJ6wkiOOG4HJC-4" target="3_p0a6_mJ6wkiOOG4HJC-16" edge="1">
                    <mxGeometry relative="1" as="geometry"/>
                </mxCell>
                <mxCell id="3_p0a6_mJ6wkiOOG4HJC-88" style="edgeStyle=none;rounded=0;orthogonalLoop=1;jettySize=auto;html=1;exitX=0.5;exitY=0.5;exitDx=0;exitDy=0;exitPerimeter=0;entryX=0;entryY=0.5;entryDx=0;entryDy=0;endArrow=none;endFill=0;" parent="1" source="3_p0a6_mJ6wkiOOG4HJC-4" target="3_p0a6_mJ6wkiOOG4HJC-18" edge="1">
                    <mxGeometry relative="1" as="geometry"/>
                </mxCell>
                <mxCell id="3_p0a6_mJ6wkiOOG4HJC-90" style="edgeStyle=none;rounded=0;orthogonalLoop=1;jettySize=auto;html=1;exitX=0.5;exitY=0.5;exitDx=0;exitDy=0;exitPerimeter=0;entryX=0;entryY=0.5;entryDx=0;entryDy=0;endArrow=none;endFill=0;" parent="1" source="3_p0a6_mJ6wkiOOG4HJC-4" target="3_p0a6_mJ6wkiOOG4HJC-22" edge="1">
                    <mxGeometry relative="1" as="geometry"/>
                </mxCell>
                <mxCell id="3_p0a6_mJ6wkiOOG4HJC-92" style="edgeStyle=none;rounded=0;orthogonalLoop=1;jettySize=auto;html=1;exitX=0.5;exitY=0.5;exitDx=0;exitDy=0;exitPerimeter=0;entryX=0;entryY=0.5;entryDx=0;entryDy=0;endArrow=none;endFill=0;" parent="1" source="3_p0a6_mJ6wkiOOG4HJC-4" target="3_p0a6_mJ6wkiOOG4HJC-21" edge="1">
                    <mxGeometry relative="1" as="geometry"/>
                </mxCell>
                <mxCell id="3_p0a6_mJ6wkiOOG4HJC-93" style="edgeStyle=none;rounded=0;orthogonalLoop=1;jettySize=auto;html=1;exitX=0.5;exitY=0.5;exitDx=0;exitDy=0;exitPerimeter=0;entryX=0;entryY=0.5;entryDx=0;entryDy=0;endArrow=none;endFill=0;" parent="1" source="3_p0a6_mJ6wkiOOG4HJC-4" target="3_p0a6_mJ6wkiOOG4HJC-20" edge="1">
                    <mxGeometry relative="1" as="geometry"/>
                </mxCell>
                <mxCell id="3_p0a6_mJ6wkiOOG4HJC-94" style="edgeStyle=none;rounded=0;orthogonalLoop=1;jettySize=auto;html=1;exitX=0.5;exitY=0.5;exitDx=0;exitDy=0;exitPerimeter=0;entryX=0;entryY=0.5;entryDx=0;entryDy=0;endArrow=none;endFill=0;" parent="1" source="3_p0a6_mJ6wkiOOG4HJC-4" target="3_p0a6_mJ6wkiOOG4HJC-29" edge="1">
                    <mxGeometry relative="1" as="geometry"/>
                </mxCell>
                <mxCell id="3_p0a6_mJ6wkiOOG4HJC-95" style="edgeStyle=none;rounded=0;orthogonalLoop=1;jettySize=auto;html=1;exitX=0.5;exitY=0.5;exitDx=0;exitDy=0;exitPerimeter=0;entryX=0;entryY=0.5;entryDx=0;entryDy=0;endArrow=none;endFill=0;" parent="1" source="3_p0a6_mJ6wkiOOG4HJC-4" target="3_p0a6_mJ6wkiOOG4HJC-33" edge="1">
                    <mxGeometry relative="1" as="geometry"/>
                </mxCell>
                <mxCell id="3_p0a6_mJ6wkiOOG4HJC-97" style="edgeStyle=none;rounded=0;orthogonalLoop=1;jettySize=auto;html=1;exitX=0.5;exitY=0.5;exitDx=0;exitDy=0;exitPerimeter=0;entryX=0;entryY=0.5;entryDx=0;entryDy=0;endArrow=none;endFill=0;" parent="1" source="3_p0a6_mJ6wkiOOG4HJC-4" target="3_p0a6_mJ6wkiOOG4HJC-30" edge="1">
                    <mxGeometry relative="1" as="geometry"/>
                </mxCell>
                <mxCell id="3_p0a6_mJ6wkiOOG4HJC-98" style="edgeStyle=none;rounded=0;orthogonalLoop=1;jettySize=auto;html=1;exitX=0.5;exitY=0.5;exitDx=0;exitDy=0;exitPerimeter=0;entryX=0;entryY=0.5;entryDx=0;entryDy=0;endArrow=none;endFill=0;" parent="1" source="3_p0a6_mJ6wkiOOG4HJC-4" target="3_p0a6_mJ6wkiOOG4HJC-32" edge="1">
                    <mxGeometry relative="1" as="geometry"/>
                </mxCell>
                <mxCell id="3_p0a6_mJ6wkiOOG4HJC-99" style="edgeStyle=none;rounded=0;orthogonalLoop=1;jettySize=auto;html=1;exitX=0.5;exitY=0.5;exitDx=0;exitDy=0;exitPerimeter=0;entryX=0;entryY=0.5;entryDx=0;entryDy=0;endArrow=none;endFill=0;" parent="1" source="3_p0a6_mJ6wkiOOG4HJC-4" target="3_p0a6_mJ6wkiOOG4HJC-31" edge="1">
                    <mxGeometry relative="1" as="geometry"/>
                </mxCell>
                <mxCell id="3_p0a6_mJ6wkiOOG4HJC-100" style="edgeStyle=none;rounded=0;orthogonalLoop=1;jettySize=auto;html=1;exitX=0.5;exitY=0.5;exitDx=0;exitDy=0;exitPerimeter=0;endArrow=none;endFill=0;entryX=0;entryY=0.5;entryDx=0;entryDy=0;" parent="1" source="3_p0a6_mJ6wkiOOG4HJC-4" target="3_p0a6_mJ6wkiOOG4HJC-34" edge="1">
                    <mxGeometry relative="1" as="geometry">
                        <mxPoint x="160" y="2500" as="targetPoint"/>
                    </mxGeometry>
                </mxCell>
                <mxCell id="3_p0a6_mJ6wkiOOG4HJC-101" style="edgeStyle=none;rounded=0;orthogonalLoop=1;jettySize=auto;html=1;exitX=0.5;exitY=0.5;exitDx=0;exitDy=0;exitPerimeter=0;entryX=0;entryY=0.5;entryDx=0;entryDy=0;endArrow=none;endFill=0;" parent="1" source="3_p0a6_mJ6wkiOOG4HJC-4" target="3_p0a6_mJ6wkiOOG4HJC-38" edge="1">
                    <mxGeometry relative="1" as="geometry"/>
                </mxCell>
                <mxCell id="3_p0a6_mJ6wkiOOG4HJC-103" style="edgeStyle=none;rounded=0;orthogonalLoop=1;jettySize=auto;html=1;exitX=0.5;exitY=0.5;exitDx=0;exitDy=0;exitPerimeter=0;entryX=0;entryY=0.5;entryDx=0;entryDy=0;endArrow=none;endFill=0;" parent="1" source="3_p0a6_mJ6wkiOOG4HJC-4" target="3_p0a6_mJ6wkiOOG4HJC-35" edge="1">
                    <mxGeometry relative="1" as="geometry"/>
                </mxCell>
                <mxCell id="3_p0a6_mJ6wkiOOG4HJC-104" style="edgeStyle=none;rounded=0;orthogonalLoop=1;jettySize=auto;html=1;exitX=0.5;exitY=0.5;exitDx=0;exitDy=0;exitPerimeter=0;entryX=0;entryY=0.5;entryDx=0;entryDy=0;endArrow=none;endFill=0;" parent="1" source="3_p0a6_mJ6wkiOOG4HJC-4" target="3_p0a6_mJ6wkiOOG4HJC-37" edge="1">
                    <mxGeometry relative="1" as="geometry"/>
                </mxCell>
                <mxCell id="3_p0a6_mJ6wkiOOG4HJC-105" style="edgeStyle=none;rounded=0;orthogonalLoop=1;jettySize=auto;html=1;exitX=0.5;exitY=0.5;exitDx=0;exitDy=0;exitPerimeter=0;entryX=0;entryY=0.5;entryDx=0;entryDy=0;endArrow=none;endFill=0;" parent="1" source="3_p0a6_mJ6wkiOOG4HJC-4" target="3_p0a6_mJ6wkiOOG4HJC-36" edge="1">
                    <mxGeometry relative="1" as="geometry"/>
                </mxCell>
                <mxCell id="3_p0a6_mJ6wkiOOG4HJC-107" style="edgeStyle=none;rounded=0;orthogonalLoop=1;jettySize=auto;html=1;exitX=0.5;exitY=0.5;exitDx=0;exitDy=0;exitPerimeter=0;entryX=0;entryY=0.5;entryDx=0;entryDy=0;endArrow=none;endFill=0;" parent="1" source="3_p0a6_mJ6wkiOOG4HJC-4" target="3_p0a6_mJ6wkiOOG4HJC-39" edge="1">
                    <mxGeometry relative="1" as="geometry"/>
                </mxCell>
                <mxCell id="3_p0a6_mJ6wkiOOG4HJC-108" style="edgeStyle=none;rounded=0;orthogonalLoop=1;jettySize=auto;html=1;exitX=0.5;exitY=0.5;exitDx=0;exitDy=0;exitPerimeter=0;entryX=0;entryY=0.5;entryDx=0;entryDy=0;endArrow=none;endFill=0;" parent="1" source="3_p0a6_mJ6wkiOOG4HJC-4" target="3_p0a6_mJ6wkiOOG4HJC-43" edge="1">
                    <mxGeometry relative="1" as="geometry"/>
                </mxCell>
                <mxCell id="3_p0a6_mJ6wkiOOG4HJC-110" style="edgeStyle=none;rounded=0;orthogonalLoop=1;jettySize=auto;html=1;exitX=0.5;exitY=0.5;exitDx=0;exitDy=0;exitPerimeter=0;entryX=0;entryY=0.5;entryDx=0;entryDy=0;endArrow=none;endFill=0;" parent="1" source="3_p0a6_mJ6wkiOOG4HJC-4" target="3_p0a6_mJ6wkiOOG4HJC-42" edge="1">
                    <mxGeometry relative="1" as="geometry"/>
                </mxCell>
                <mxCell id="3_p0a6_mJ6wkiOOG4HJC-111" style="edgeStyle=none;rounded=0;orthogonalLoop=1;jettySize=auto;html=1;exitX=0.5;exitY=0.5;exitDx=0;exitDy=0;exitPerimeter=0;entryX=0;entryY=0.5;entryDx=0;entryDy=0;endArrow=none;endFill=0;" parent="1" source="3_p0a6_mJ6wkiOOG4HJC-4" target="3_p0a6_mJ6wkiOOG4HJC-41" edge="1">
                    <mxGeometry relative="1" as="geometry"/>
                </mxCell>
                <mxCell id="3_p0a6_mJ6wkiOOG4HJC-113" style="edgeStyle=none;rounded=0;orthogonalLoop=1;jettySize=auto;html=1;exitX=0.5;exitY=0.5;exitDx=0;exitDy=0;exitPerimeter=0;entryX=0;entryY=0.5;entryDx=0;entryDy=0;endArrow=none;endFill=0;" parent="1" source="3_p0a6_mJ6wkiOOG4HJC-4" target="3_p0a6_mJ6wkiOOG4HJC-44" edge="1">
                    <mxGeometry relative="1" as="geometry"/>
                </mxCell>
                <mxCell id="3_p0a6_mJ6wkiOOG4HJC-114" style="edgeStyle=none;rounded=0;orthogonalLoop=1;jettySize=auto;html=1;exitX=0.5;exitY=0.5;exitDx=0;exitDy=0;exitPerimeter=0;entryX=0;entryY=0.5;entryDx=0;entryDy=0;endArrow=none;endFill=0;" parent="1" source="3_p0a6_mJ6wkiOOG4HJC-4" target="3_p0a6_mJ6wkiOOG4HJC-48" edge="1">
                    <mxGeometry relative="1" as="geometry"/>
                </mxCell>
                <mxCell id="3_p0a6_mJ6wkiOOG4HJC-115" style="edgeStyle=none;rounded=0;orthogonalLoop=1;jettySize=auto;html=1;exitX=0.5;exitY=0.5;exitDx=0;exitDy=0;exitPerimeter=0;entryX=0;entryY=0.5;entryDx=0;entryDy=0;endArrow=none;endFill=0;" parent="1" source="3_p0a6_mJ6wkiOOG4HJC-4" target="3_p0a6_mJ6wkiOOG4HJC-45" edge="1">
                    <mxGeometry relative="1" as="geometry"/>
                </mxCell>
                <mxCell id="3_p0a6_mJ6wkiOOG4HJC-116" style="edgeStyle=none;rounded=0;orthogonalLoop=1;jettySize=auto;html=1;exitX=0.5;exitY=0.5;exitDx=0;exitDy=0;exitPerimeter=0;entryX=0;entryY=0.5;entryDx=0;entryDy=0;endArrow=none;endFill=0;" parent="1" source="3_p0a6_mJ6wkiOOG4HJC-4" target="3_p0a6_mJ6wkiOOG4HJC-47" edge="1">
                    <mxGeometry relative="1" as="geometry"/>
                </mxCell>
                <mxCell id="3_p0a6_mJ6wkiOOG4HJC-117" style="edgeStyle=none;rounded=0;orthogonalLoop=1;jettySize=auto;html=1;exitX=0.5;exitY=0.5;exitDx=0;exitDy=0;exitPerimeter=0;entryX=0;entryY=0.5;entryDx=0;entryDy=0;endArrow=none;endFill=0;" parent="1" source="3_p0a6_mJ6wkiOOG4HJC-4" target="3_p0a6_mJ6wkiOOG4HJC-46" edge="1">
                    <mxGeometry relative="1" as="geometry"/>
                </mxCell>
                <mxCell id="3_p0a6_mJ6wkiOOG4HJC-119" style="edgeStyle=none;rounded=0;orthogonalLoop=1;jettySize=auto;html=1;exitX=0.5;exitY=0.5;exitDx=0;exitDy=0;exitPerimeter=0;entryX=0;entryY=0.5;entryDx=0;entryDy=0;endArrow=none;endFill=0;" parent="1" source="3_p0a6_mJ6wkiOOG4HJC-4" target="3_p0a6_mJ6wkiOOG4HJC-53" edge="1">
                    <mxGeometry relative="1" as="geometry"/>
                </mxCell>
                <mxCell id="3_p0a6_mJ6wkiOOG4HJC-120" style="edgeStyle=none;rounded=0;orthogonalLoop=1;jettySize=auto;html=1;exitX=0.5;exitY=0.5;exitDx=0;exitDy=0;exitPerimeter=0;entryX=0;entryY=0.5;entryDx=0;entryDy=0;endArrow=none;endFill=0;" parent="1" source="3_p0a6_mJ6wkiOOG4HJC-4" target="3_p0a6_mJ6wkiOOG4HJC-52" edge="1">
                    <mxGeometry relative="1" as="geometry"/>
                </mxCell>
                <mxCell id="3_p0a6_mJ6wkiOOG4HJC-121" style="edgeStyle=none;rounded=0;orthogonalLoop=1;jettySize=auto;html=1;exitX=0.5;exitY=0.5;exitDx=0;exitDy=0;exitPerimeter=0;entryX=0;entryY=0.5;entryDx=0;entryDy=0;endArrow=none;endFill=0;" parent="1" source="3_p0a6_mJ6wkiOOG4HJC-4" target="3_p0a6_mJ6wkiOOG4HJC-57" edge="1">
                    <mxGeometry relative="1" as="geometry"/>
                </mxCell>
                <mxCell id="3_p0a6_mJ6wkiOOG4HJC-122" style="edgeStyle=none;rounded=0;orthogonalLoop=1;jettySize=auto;html=1;exitX=0.5;exitY=0.5;exitDx=0;exitDy=0;exitPerimeter=0;entryX=0;entryY=0.5;entryDx=0;entryDy=0;endArrow=none;endFill=0;" parent="1" source="3_p0a6_mJ6wkiOOG4HJC-4" target="3_p0a6_mJ6wkiOOG4HJC-56" edge="1">
                    <mxGeometry relative="1" as="geometry"/>
                </mxCell>
                <mxCell id="3_p0a6_mJ6wkiOOG4HJC-124" style="edgeStyle=none;rounded=0;orthogonalLoop=1;jettySize=auto;html=1;exitX=0.5;exitY=0.5;exitDx=0;exitDy=0;exitPerimeter=0;endArrow=none;endFill=0;entryX=0;entryY=0.5;entryDx=0;entryDy=0;" parent="1" source="3_p0a6_mJ6wkiOOG4HJC-4" target="3_p0a6_mJ6wkiOOG4HJC-61" edge="1">
                    <mxGeometry relative="1" as="geometry"/>
                </mxCell>
                <mxCell id="y_2Z9cbgFEfBiP4_PbCz-9" style="rounded=0;orthogonalLoop=1;jettySize=auto;html=1;exitX=0.5;exitY=0.5;exitDx=0;exitDy=0;exitPerimeter=0;entryX=0;entryY=0.5;entryDx=0;entryDy=0;endArrow=none;endFill=0;" parent="1" source="3_p0a6_mJ6wkiOOG4HJC-4" target="y_2Z9cbgFEfBiP4_PbCz-3" edge="1">
                    <mxGeometry relative="1" as="geometry"/>
                </mxCell>
                <mxCell id="y_2Z9cbgFEfBiP4_PbCz-52" style="edgeStyle=none;rounded=0;orthogonalLoop=1;jettySize=auto;html=1;exitX=0.5;exitY=0.5;exitDx=0;exitDy=0;exitPerimeter=0;endArrow=none;endFill=0;entryX=0;entryY=0.5;entryDx=0;entryDy=0;" parent="1" source="3_p0a6_mJ6wkiOOG4HJC-4" target="y_2Z9cbgFEfBiP4_PbCz-45" edge="1">
                    <mxGeometry relative="1" as="geometry">
                        <mxPoint x="-340" y="5130" as="targetPoint"/>
                    </mxGeometry>
                </mxCell>
                <mxCell id="3_p0a6_mJ6wkiOOG4HJC-4" value="Admin" style="shape=umlActor;html=1;verticalLabelPosition=bottom;verticalAlign=top;align=center;" parent="1" vertex="1">
                    <mxGeometry x="-1134" y="3240" width="30" height="60" as="geometry"/>
                </mxCell>
                <mxCell id="6s27l5ecv5DC3e-yi6R3-2" style="rounded=0;orthogonalLoop=1;jettySize=auto;html=1;exitX=1;exitY=0.5;exitDx=0;exitDy=0;entryX=0;entryY=0.5;entryDx=0;entryDy=0;dashed=1;dashPattern=12 12;" parent="1" source="3_p0a6_mJ6wkiOOG4HJC-5" target="y_2Z9cbgFEfBiP4_PbCz-8" edge="1">
                    <mxGeometry relative="1" as="geometry"/>
                </mxCell>
                <mxCell id="6s27l5ecv5DC3e-yi6R3-3" value="&amp;lt;&amp;lt; include &amp;gt;&amp;gt;" style="edgeLabel;html=1;align=center;verticalAlign=middle;resizable=0;points=[];" parent="6s27l5ecv5DC3e-yi6R3-2" vertex="1" connectable="0">
                    <mxGeometry x="-0.2127" y="7" relative="1" as="geometry">
                        <mxPoint y="1" as="offset"/>
                    </mxGeometry>
                </mxCell>
                <mxCell id="3_p0a6_mJ6wkiOOG4HJC-5" value="Create fishes" style="ellipse;whiteSpace=wrap;html=1;" parent="1" vertex="1">
                    <mxGeometry x="320" y="160" width="100" height="80" as="geometry"/>
                </mxCell>
                <mxCell id="3_p0a6_mJ6wkiOOG4HJC-6" value="Update fishes" style="ellipse;whiteSpace=wrap;html=1;" parent="1" vertex="1">
                    <mxGeometry x="320" y="250" width="100" height="80" as="geometry"/>
                </mxCell>
                <mxCell id="3_p0a6_mJ6wkiOOG4HJC-7" value="Delete fishes" style="ellipse;whiteSpace=wrap;html=1;" parent="1" vertex="1">
                    <mxGeometry x="320" y="430" width="100" height="80" as="geometry"/>
                </mxCell>
                <mxCell id="3_p0a6_mJ6wkiOOG4HJC-8" value="Get&amp;nbsp;fishes" style="ellipse;whiteSpace=wrap;html=1;" parent="1" vertex="1">
                    <mxGeometry x="320" y="340" width="100" height="80" as="geometry"/>
                </mxCell>
                <mxCell id="3_p0a6_mJ6wkiOOG4HJC-9" value="Create warehouse" style="ellipse;whiteSpace=wrap;html=1;" parent="1" vertex="1">
                    <mxGeometry x="320" y="558" width="100" height="80" as="geometry"/>
                </mxCell>
                <mxCell id="3_p0a6_mJ6wkiOOG4HJC-10" value="Update warehouse" style="ellipse;whiteSpace=wrap;html=1;" parent="1" vertex="1">
                    <mxGeometry x="320" y="648" width="100" height="80" as="geometry"/>
                </mxCell>
                <mxCell id="3_p0a6_mJ6wkiOOG4HJC-11" value="Delete &lt;br&gt;warehouse" style="ellipse;whiteSpace=wrap;html=1;" parent="1" vertex="1">
                    <mxGeometry x="320" y="828" width="100" height="80" as="geometry"/>
                </mxCell>
                <mxCell id="3_p0a6_mJ6wkiOOG4HJC-12" value="Get&amp;nbsp;warehouses" style="ellipse;whiteSpace=wrap;html=1;" parent="1" vertex="1">
                    <mxGeometry x="320" y="738" width="100" height="80" as="geometry"/>
                </mxCell>
                <mxCell id="3_p0a6_mJ6wkiOOG4HJC-14" value="Create collaborator" style="ellipse;whiteSpace=wrap;html=1;" parent="1" vertex="1">
                    <mxGeometry x="320" y="944" width="100" height="80" as="geometry"/>
                </mxCell>
                <mxCell id="3_p0a6_mJ6wkiOOG4HJC-15" value="Update collaborator" style="ellipse;whiteSpace=wrap;html=1;" parent="1" vertex="1">
                    <mxGeometry x="320" y="1034" width="100" height="80" as="geometry"/>
                </mxCell>
                <mxCell id="3_p0a6_mJ6wkiOOG4HJC-16" value="Delete collaborator" style="ellipse;whiteSpace=wrap;html=1;" parent="1" vertex="1">
                    <mxGeometry x="320" y="1214" width="100" height="80" as="geometry"/>
                </mxCell>
                <mxCell id="3_p0a6_mJ6wkiOOG4HJC-17" value="Get collaborators" style="ellipse;whiteSpace=wrap;html=1;" parent="1" vertex="1">
                    <mxGeometry x="320" y="1124" width="100" height="80" as="geometry"/>
                </mxCell>
                <mxCell id="3_p0a6_mJ6wkiOOG4HJC-18" value="Create employee&lt;br&gt;fisher account" style="ellipse;whiteSpace=wrap;html=1;" parent="1" vertex="1">
                    <mxGeometry x="320" y="1332" width="100" height="80" as="geometry"/>
                </mxCell>
                <mxCell id="3_p0a6_mJ6wkiOOG4HJC-19" value="Update fisher account" style="ellipse;whiteSpace=wrap;html=1;" parent="1" vertex="1">
                    <mxGeometry x="320" y="1611" width="100" height="80" as="geometry"/>
                </mxCell>
                <mxCell id="3_p0a6_mJ6wkiOOG4HJC-20" value="Delete fisher account" style="ellipse;whiteSpace=wrap;html=1;" parent="1" vertex="1">
                    <mxGeometry x="320" y="1792" width="100" height="80" as="geometry"/>
                </mxCell>
                <mxCell id="3_p0a6_mJ6wkiOOG4HJC-21" value="Get fisher &lt;br&gt;accounts" style="ellipse;whiteSpace=wrap;html=1;" parent="1" vertex="1">
                    <mxGeometry x="320" y="1701" width="100" height="80" as="geometry"/>
                </mxCell>
                <mxCell id="3_p0a6_mJ6wkiOOG4HJC-22" value="accept freelancer fisher account" style="ellipse;whiteSpace=wrap;html=1;" parent="1" vertex="1">
                    <mxGeometry x="320" y="1525" width="100" height="80" as="geometry"/>
                </mxCell>
                <mxCell id="3_p0a6_mJ6wkiOOG4HJC-29" value="Create employee&lt;br&gt;boats" style="ellipse;whiteSpace=wrap;html=1;" parent="1" vertex="1">
                    <mxGeometry x="320" y="1915" width="100" height="80" as="geometry"/>
                </mxCell>
                <mxCell id="3_p0a6_mJ6wkiOOG4HJC-30" value="Update boats" style="ellipse;whiteSpace=wrap;html=1;" parent="1" vertex="1">
                    <mxGeometry x="320" y="2189" width="100" height="80" as="geometry"/>
                </mxCell>
                <mxCell id="3_p0a6_mJ6wkiOOG4HJC-31" value="Delete boats" style="ellipse;whiteSpace=wrap;html=1;" parent="1" vertex="1">
                    <mxGeometry x="320" y="2370" width="100" height="80" as="geometry"/>
                </mxCell>
                <mxCell id="3_p0a6_mJ6wkiOOG4HJC-32" value="Get boats" style="ellipse;whiteSpace=wrap;html=1;" parent="1" vertex="1">
                    <mxGeometry x="320" y="2279" width="100" height="80" as="geometry"/>
                </mxCell>
                <mxCell id="3_p0a6_mJ6wkiOOG4HJC-33" value="accept freelancer boats" style="ellipse;whiteSpace=wrap;html=1;" parent="1" vertex="1">
                    <mxGeometry x="320" y="2103" width="100" height="80" as="geometry"/>
                </mxCell>
                <mxCell id="3_p0a6_mJ6wkiOOG4HJC-34" value="Create employee&lt;br&gt;vehicle" style="ellipse;whiteSpace=wrap;html=1;" parent="1" vertex="1">
                    <mxGeometry x="320" y="2500" width="100" height="80" as="geometry"/>
                </mxCell>
                <mxCell id="3_p0a6_mJ6wkiOOG4HJC-35" value="Update vehicle" style="ellipse;whiteSpace=wrap;html=1;" parent="1" vertex="1">
                    <mxGeometry x="320" y="2761" width="100" height="80" as="geometry"/>
                </mxCell>
                <mxCell id="3_p0a6_mJ6wkiOOG4HJC-36" value="Delete vehicle" style="ellipse;whiteSpace=wrap;html=1;" parent="1" vertex="1">
                    <mxGeometry x="320" y="2942" width="100" height="80" as="geometry"/>
                </mxCell>
                <mxCell id="3_p0a6_mJ6wkiOOG4HJC-37" value="Get vehicles" style="ellipse;whiteSpace=wrap;html=1;" parent="1" vertex="1">
                    <mxGeometry x="320" y="2851" width="100" height="80" as="geometry"/>
                </mxCell>
                <mxCell id="3_p0a6_mJ6wkiOOG4HJC-38" value="accept freelancer vehicle" style="ellipse;whiteSpace=wrap;html=1;" parent="1" vertex="1">
                    <mxGeometry x="320" y="2675" width="100" height="80" as="geometry"/>
                </mxCell>
                <mxCell id="3_p0a6_mJ6wkiOOG4HJC-39" value="Create employee&lt;br&gt;delivery man account" style="ellipse;whiteSpace=wrap;html=1;" parent="1" vertex="1">
                    <mxGeometry x="315" y="3067" width="110" height="85" as="geometry"/>
                </mxCell>
                <mxCell id="3_p0a6_mJ6wkiOOG4HJC-40" value="Update delivery man account" style="ellipse;whiteSpace=wrap;html=1;" parent="1" vertex="1">
                    <mxGeometry x="320" y="3369" width="100" height="80" as="geometry"/>
                </mxCell>
                <mxCell id="3_p0a6_mJ6wkiOOG4HJC-41" value="Delete delivery man account" style="ellipse;whiteSpace=wrap;html=1;" parent="1" vertex="1">
                    <mxGeometry x="320" y="3550" width="100" height="80" as="geometry"/>
                </mxCell>
                <mxCell id="3_p0a6_mJ6wkiOOG4HJC-42" value="Get delivery men accounts" style="ellipse;whiteSpace=wrap;html=1;" parent="1" vertex="1">
                    <mxGeometry x="320" y="3459" width="100" height="80" as="geometry"/>
                </mxCell>
                <mxCell id="3_p0a6_mJ6wkiOOG4HJC-43" value="accept freelancer delivery man account" style="ellipse;whiteSpace=wrap;html=1;" parent="1" vertex="1">
                    <mxGeometry x="320" y="3270" width="100" height="82" as="geometry"/>
                </mxCell>
                <mxCell id="3_p0a6_mJ6wkiOOG4HJC-44" value="Create employee fihsers fishing trips" style="ellipse;whiteSpace=wrap;html=1;" parent="1" vertex="1">
                    <mxGeometry x="316" y="3666" width="110" height="90" as="geometry"/>
                </mxCell>
                <mxCell id="3_p0a6_mJ6wkiOOG4HJC-45" value="Update&amp;nbsp;fishing trips" style="ellipse;whiteSpace=wrap;html=1;" parent="1" vertex="1">
                    <mxGeometry x="320" y="3965" width="100" height="80" as="geometry"/>
                </mxCell>
                <mxCell id="3_p0a6_mJ6wkiOOG4HJC-46" value="Delete fishing trips" style="ellipse;whiteSpace=wrap;html=1;" parent="1" vertex="1">
                    <mxGeometry x="320" y="4146" width="100" height="80" as="geometry"/>
                </mxCell>
                <mxCell id="3_p0a6_mJ6wkiOOG4HJC-47" value="Get fishing trips" style="ellipse;whiteSpace=wrap;html=1;" parent="1" vertex="1">
                    <mxGeometry x="320" y="4055" width="100" height="80" as="geometry"/>
                </mxCell>
                <mxCell id="3_p0a6_mJ6wkiOOG4HJC-48" value="accept freelance fishers fishing trips" style="ellipse;whiteSpace=wrap;html=1;" parent="1" vertex="1">
                    <mxGeometry x="320" y="3873" width="100" height="88" as="geometry"/>
                </mxCell>
                <mxCell id="3_p0a6_mJ6wkiOOG4HJC-51" value="Update product" style="ellipse;whiteSpace=wrap;html=1;" parent="1" vertex="1">
                    <mxGeometry x="321" y="4630" width="100" height="80" as="geometry"/>
                </mxCell>
                <mxCell id="3_p0a6_mJ6wkiOOG4HJC-52" value="Delete product" style="ellipse;whiteSpace=wrap;html=1;" parent="1" vertex="1">
                    <mxGeometry x="318" y="4810" width="100" height="80" as="geometry"/>
                </mxCell>
                <mxCell id="3_p0a6_mJ6wkiOOG4HJC-53" value="Get products" style="ellipse;whiteSpace=wrap;html=1;" parent="1" vertex="1">
                    <mxGeometry x="321" y="4720" width="100" height="80" as="geometry"/>
                </mxCell>
                <mxCell id="3_p0a6_mJ6wkiOOG4HJC-54" value="Create client account" style="ellipse;whiteSpace=wrap;html=1;" parent="1" vertex="1">
                    <mxGeometry x="321" y="4923" width="100" height="80" as="geometry"/>
                </mxCell>
                <mxCell id="3_p0a6_mJ6wkiOOG4HJC-55" value="Update client account" style="ellipse;whiteSpace=wrap;html=1;" parent="1" vertex="1">
                    <mxGeometry x="321" y="5013" width="100" height="80" as="geometry"/>
                </mxCell>
                <mxCell id="3_p0a6_mJ6wkiOOG4HJC-56" value="Delete client account" style="ellipse;whiteSpace=wrap;html=1;" parent="1" vertex="1">
                    <mxGeometry x="321" y="5193" width="100" height="80" as="geometry"/>
                </mxCell>
                <mxCell id="3_p0a6_mJ6wkiOOG4HJC-57" value="Get client accounts" style="ellipse;whiteSpace=wrap;html=1;" parent="1" vertex="1">
                    <mxGeometry x="321" y="5103" width="100" height="80" as="geometry"/>
                </mxCell>
                <mxCell id="3_p0a6_mJ6wkiOOG4HJC-59" value="Create job offer" style="ellipse;whiteSpace=wrap;html=1;" parent="1" vertex="1">
                    <mxGeometry x="321" y="5321" width="100" height="80" as="geometry"/>
                </mxCell>
                <mxCell id="3_p0a6_mJ6wkiOOG4HJC-60" value="Update job offer" style="ellipse;whiteSpace=wrap;html=1;" parent="1" vertex="1">
                    <mxGeometry x="321" y="5411" width="100" height="80" as="geometry"/>
                </mxCell>
                <mxCell id="3_p0a6_mJ6wkiOOG4HJC-61" value="Delete job offer" style="ellipse;whiteSpace=wrap;html=1;" parent="1" vertex="1">
                    <mxGeometry x="321" y="5591" width="100" height="80" as="geometry"/>
                </mxCell>
                <mxCell id="3_p0a6_mJ6wkiOOG4HJC-62" value="Get job offers" style="ellipse;whiteSpace=wrap;html=1;" parent="1" vertex="1">
                    <mxGeometry x="321" y="5501" width="100" height="80" as="geometry"/>
                </mxCell>
                <mxCell id="y_2Z9cbgFEfBiP4_PbCz-22" style="edgeStyle=none;rounded=0;orthogonalLoop=1;jettySize=auto;html=1;exitX=0.5;exitY=0.5;exitDx=0;exitDy=0;exitPerimeter=0;entryX=0;entryY=0.5;entryDx=0;entryDy=0;endArrow=none;endFill=0;" parent="1" source="3_p0a6_mJ6wkiOOG4HJC-63" target="y_2Z9cbgFEfBiP4_PbCz-3" edge="1">
                    <mxGeometry relative="1" as="geometry"/>
                </mxCell>
                <mxCell id="y_2Z9cbgFEfBiP4_PbCz-23" style="edgeStyle=none;rounded=0;orthogonalLoop=1;jettySize=auto;html=1;exitX=0.5;exitY=0.5;exitDx=0;exitDy=0;exitPerimeter=0;entryX=0;entryY=0.5;entryDx=0;entryDy=0;endArrow=none;endFill=0;" parent="1" source="3_p0a6_mJ6wkiOOG4HJC-63" target="3_p0a6_mJ6wkiOOG4HJC-5" edge="1">
                    <mxGeometry relative="1" as="geometry"/>
                </mxCell>
                <mxCell id="y_2Z9cbgFEfBiP4_PbCz-24" style="edgeStyle=none;rounded=0;orthogonalLoop=1;jettySize=auto;html=1;exitX=0.5;exitY=0.5;exitDx=0;exitDy=0;exitPerimeter=0;entryX=0;entryY=0.5;entryDx=0;entryDy=0;endArrow=none;endFill=0;" parent="1" source="3_p0a6_mJ6wkiOOG4HJC-63" target="3_p0a6_mJ6wkiOOG4HJC-6" edge="1">
                    <mxGeometry relative="1" as="geometry"/>
                </mxCell>
                <mxCell id="y_2Z9cbgFEfBiP4_PbCz-25" style="edgeStyle=none;rounded=0;orthogonalLoop=1;jettySize=auto;html=1;exitX=0.5;exitY=0.5;exitDx=0;exitDy=0;exitPerimeter=0;entryX=0;entryY=0.5;entryDx=0;entryDy=0;endArrow=none;endFill=0;" parent="1" source="3_p0a6_mJ6wkiOOG4HJC-63" target="3_p0a6_mJ6wkiOOG4HJC-8" edge="1">
                    <mxGeometry relative="1" as="geometry"/>
                </mxCell>
                <mxCell id="y_2Z9cbgFEfBiP4_PbCz-26" style="edgeStyle=none;rounded=0;orthogonalLoop=1;jettySize=auto;html=1;exitX=0.5;exitY=0.5;exitDx=0;exitDy=0;exitPerimeter=0;entryX=0;entryY=0.5;entryDx=0;entryDy=0;endArrow=none;endFill=0;" parent="1" source="3_p0a6_mJ6wkiOOG4HJC-63" target="3_p0a6_mJ6wkiOOG4HJC-7" edge="1">
                    <mxGeometry relative="1" as="geometry"/>
                </mxCell>
                <mxCell id="y_2Z9cbgFEfBiP4_PbCz-27" style="edgeStyle=none;rounded=0;orthogonalLoop=1;jettySize=auto;html=1;exitX=0.5;exitY=0.5;exitDx=0;exitDy=0;exitPerimeter=0;endArrow=none;endFill=0;entryX=0;entryY=0.5;entryDx=0;entryDy=0;" parent="1" source="y_2Z9cbgFEfBiP4_PbCz-56" target="3_p0a6_mJ6wkiOOG4HJC-89" edge="1">
                    <mxGeometry relative="1" as="geometry">
                        <mxPoint x="70" y="1450" as="targetPoint"/>
                    </mxGeometry>
                </mxCell>
                <mxCell id="y_2Z9cbgFEfBiP4_PbCz-28" style="edgeStyle=none;rounded=0;orthogonalLoop=1;jettySize=auto;html=1;exitX=0.5;exitY=0.5;exitDx=0;exitDy=0;exitPerimeter=0;entryX=0;entryY=0.5;entryDx=0;entryDy=0;endArrow=none;endFill=0;" parent="1" source="3_p0a6_mJ6wkiOOG4HJC-63" target="3_p0a6_mJ6wkiOOG4HJC-19" edge="1">
                    <mxGeometry relative="1" as="geometry"/>
                </mxCell>
                <mxCell id="y_2Z9cbgFEfBiP4_PbCz-29" style="edgeStyle=none;rounded=0;orthogonalLoop=1;jettySize=auto;html=1;exitX=0.5;exitY=0.5;exitDx=0;exitDy=0;exitPerimeter=0;endArrow=none;endFill=0;entryX=0;entryY=0.5;entryDx=0;entryDy=0;" parent="1" source="3_p0a6_mJ6wkiOOG4HJC-63" target="3_p0a6_mJ6wkiOOG4HJC-21" edge="1">
                    <mxGeometry relative="1" as="geometry">
                        <mxPoint x="-170" y="1684.5" as="targetPoint"/>
                    </mxGeometry>
                </mxCell>
                <mxCell id="y_2Z9cbgFEfBiP4_PbCz-30" style="edgeStyle=none;rounded=0;orthogonalLoop=1;jettySize=auto;html=1;exitX=0.5;exitY=0.5;exitDx=0;exitDy=0;exitPerimeter=0;entryX=0;entryY=0.5;entryDx=0;entryDy=0;endArrow=none;endFill=0;" parent="1" source="3_p0a6_mJ6wkiOOG4HJC-63" target="3_p0a6_mJ6wkiOOG4HJC-20" edge="1">
                    <mxGeometry relative="1" as="geometry"/>
                </mxCell>
                <mxCell id="y_2Z9cbgFEfBiP4_PbCz-31" style="edgeStyle=none;rounded=0;orthogonalLoop=1;jettySize=auto;html=1;exitX=0.5;exitY=0.5;exitDx=0;exitDy=0;exitPerimeter=0;endArrow=none;endFill=0;entryX=0;entryY=0.5;entryDx=0;entryDy=0;" parent="1" source="y_2Z9cbgFEfBiP4_PbCz-56" target="3_p0a6_mJ6wkiOOG4HJC-96" edge="1">
                    <mxGeometry relative="1" as="geometry"/>
                </mxCell>
                <mxCell id="y_2Z9cbgFEfBiP4_PbCz-32" style="edgeStyle=none;rounded=0;orthogonalLoop=1;jettySize=auto;html=1;entryX=0;entryY=0.5;entryDx=0;entryDy=0;endArrow=none;endFill=0;exitX=0.5;exitY=0.5;exitDx=0;exitDy=0;exitPerimeter=0;" parent="1" source="y_2Z9cbgFEfBiP4_PbCz-56" target="3_p0a6_mJ6wkiOOG4HJC-30" edge="1">
                    <mxGeometry relative="1" as="geometry">
                        <mxPoint x="-1220" y="3560" as="sourcePoint"/>
                    </mxGeometry>
                </mxCell>
                <mxCell id="y_2Z9cbgFEfBiP4_PbCz-33" style="edgeStyle=none;rounded=0;orthogonalLoop=1;jettySize=auto;html=1;exitX=0.5;exitY=0.5;exitDx=0;exitDy=0;exitPerimeter=0;entryX=0;entryY=0.5;entryDx=0;entryDy=0;endArrow=none;endFill=0;" parent="1" source="3_p0a6_mJ6wkiOOG4HJC-63" target="3_p0a6_mJ6wkiOOG4HJC-32" edge="1">
                    <mxGeometry relative="1" as="geometry"/>
                </mxCell>
                <mxCell id="y_2Z9cbgFEfBiP4_PbCz-34" style="edgeStyle=none;rounded=0;orthogonalLoop=1;jettySize=auto;html=1;endArrow=none;endFill=0;entryX=0;entryY=0.5;entryDx=0;entryDy=0;exitX=0.5;exitY=0.5;exitDx=0;exitDy=0;exitPerimeter=0;" parent="1" source="y_2Z9cbgFEfBiP4_PbCz-56" target="3_p0a6_mJ6wkiOOG4HJC-31" edge="1">
                    <mxGeometry relative="1" as="geometry">
                        <mxPoint x="-1260" y="3310" as="sourcePoint"/>
                    </mxGeometry>
                </mxCell>
                <mxCell id="y_2Z9cbgFEfBiP4_PbCz-35" style="edgeStyle=none;rounded=0;orthogonalLoop=1;jettySize=auto;html=1;endArrow=none;endFill=0;entryX=0;entryY=0.5;entryDx=0;entryDy=0;exitX=0.5;exitY=0.5;exitDx=0;exitDy=0;exitPerimeter=0;" parent="1" source="y_2Z9cbgFEfBiP4_PbCz-56" target="3_p0a6_mJ6wkiOOG4HJC-112" edge="1">
                    <mxGeometry relative="1" as="geometry">
                        <mxPoint x="320" y="3320" as="targetPoint"/>
                        <mxPoint x="-1230" y="2640" as="sourcePoint"/>
                    </mxGeometry>
                </mxCell>
                <mxCell id="y_2Z9cbgFEfBiP4_PbCz-36" style="edgeStyle=none;rounded=0;orthogonalLoop=1;jettySize=auto;html=1;exitX=0.5;exitY=0.5;exitDx=0;exitDy=0;exitPerimeter=0;endArrow=none;endFill=0;entryX=0;entryY=0.5;entryDx=0;entryDy=0;" parent="1" source="3_p0a6_mJ6wkiOOG4HJC-63" target="3_p0a6_mJ6wkiOOG4HJC-45" edge="1">
                    <mxGeometry relative="1" as="geometry">
                        <mxPoint x="20" y="3270" as="targetPoint"/>
                    </mxGeometry>
                </mxCell>
                <mxCell id="y_2Z9cbgFEfBiP4_PbCz-37" style="edgeStyle=none;rounded=0;orthogonalLoop=1;jettySize=auto;html=1;exitX=0.5;exitY=0.5;exitDx=0;exitDy=0;exitPerimeter=0;entryX=0;entryY=0.5;entryDx=0;entryDy=0;endArrow=none;endFill=0;" parent="1" source="3_p0a6_mJ6wkiOOG4HJC-63" target="3_p0a6_mJ6wkiOOG4HJC-47" edge="1">
                    <mxGeometry relative="1" as="geometry"/>
                </mxCell>
                <mxCell id="y_2Z9cbgFEfBiP4_PbCz-38" style="edgeStyle=none;rounded=0;orthogonalLoop=1;jettySize=auto;html=1;exitX=0.5;exitY=0.5;exitDx=0;exitDy=0;exitPerimeter=0;entryX=0;entryY=0.5;entryDx=0;entryDy=0;endArrow=none;endFill=0;" parent="1" source="3_p0a6_mJ6wkiOOG4HJC-63" target="3_p0a6_mJ6wkiOOG4HJC-46" edge="1">
                    <mxGeometry relative="1" as="geometry"/>
                </mxCell>
                <mxCell id="y_2Z9cbgFEfBiP4_PbCz-39" style="edgeStyle=none;rounded=0;orthogonalLoop=1;jettySize=auto;html=1;exitX=0.5;exitY=0.5;exitDx=0;exitDy=0;exitPerimeter=0;entryX=0;entryY=0.5;entryDx=0;entryDy=0;endArrow=none;endFill=0;" parent="1" source="3_p0a6_mJ6wkiOOG4HJC-63" target="3_p0a6_mJ6wkiOOG4HJC-50" edge="1">
                    <mxGeometry relative="1" as="geometry"/>
                </mxCell>
                <mxCell id="y_2Z9cbgFEfBiP4_PbCz-40" style="edgeStyle=none;rounded=0;orthogonalLoop=1;jettySize=auto;html=1;entryX=0;entryY=0.5;entryDx=0;entryDy=0;endArrow=none;endFill=0;exitX=0.5;exitY=0.5;exitDx=0;exitDy=0;exitPerimeter=0;" parent="1" source="y_2Z9cbgFEfBiP4_PbCz-56" target="3_p0a6_mJ6wkiOOG4HJC-75" edge="1">
                    <mxGeometry relative="1" as="geometry">
                        <mxPoint x="-1260" y="2800" as="sourcePoint"/>
                    </mxGeometry>
                </mxCell>
                <mxCell id="y_2Z9cbgFEfBiP4_PbCz-41" style="edgeStyle=none;rounded=0;orthogonalLoop=1;jettySize=auto;html=1;exitX=0.5;exitY=0.5;exitDx=0;exitDy=0;exitPerimeter=0;entryX=0;entryY=0.5;entryDx=0;entryDy=0;endArrow=none;endFill=0;" parent="1" source="3_p0a6_mJ6wkiOOG4HJC-63" target="3_p0a6_mJ6wkiOOG4HJC-51" edge="1">
                    <mxGeometry relative="1" as="geometry"/>
                </mxCell>
                <mxCell id="y_2Z9cbgFEfBiP4_PbCz-42" style="edgeStyle=none;rounded=0;orthogonalLoop=1;jettySize=auto;html=1;exitX=0.5;exitY=0.5;exitDx=0;exitDy=0;exitPerimeter=0;entryX=0;entryY=0.5;entryDx=0;entryDy=0;endArrow=none;endFill=0;" parent="1" source="y_2Z9cbgFEfBiP4_PbCz-56" target="3_p0a6_mJ6wkiOOG4HJC-53" edge="1">
                    <mxGeometry relative="1" as="geometry"/>
                </mxCell>
                <mxCell id="y_2Z9cbgFEfBiP4_PbCz-43" style="edgeStyle=none;rounded=0;orthogonalLoop=1;jettySize=auto;html=1;exitX=0.5;exitY=0.5;exitDx=0;exitDy=0;exitPerimeter=0;entryX=0;entryY=0.5;entryDx=0;entryDy=0;endArrow=none;endFill=0;" parent="1" source="3_p0a6_mJ6wkiOOG4HJC-63" target="3_p0a6_mJ6wkiOOG4HJC-52" edge="1">
                    <mxGeometry relative="1" as="geometry"/>
                </mxCell>
                <mxCell id="y_2Z9cbgFEfBiP4_PbCz-47" style="edgeStyle=none;rounded=0;orthogonalLoop=1;jettySize=auto;html=1;exitX=0.5;exitY=0.5;exitDx=0;exitDy=0;exitPerimeter=0;endArrow=none;endFill=0;entryX=0;entryY=0.5;entryDx=0;entryDy=0;" parent="1" source="y_2Z9cbgFEfBiP4_PbCz-56" target="y_2Z9cbgFEfBiP4_PbCz-44" edge="1">
                    <mxGeometry relative="1" as="geometry">
                        <mxPoint x="-40" y="5140" as="targetPoint"/>
                    </mxGeometry>
                </mxCell>
                <mxCell id="y_2Z9cbgFEfBiP4_PbCz-48" style="edgeStyle=none;rounded=0;orthogonalLoop=1;jettySize=auto;html=1;endArrow=none;endFill=0;entryX=0;entryY=0.5;entryDx=0;entryDy=0;exitX=0.5;exitY=0.5;exitDx=0;exitDy=0;exitPerimeter=0;" parent="1" source="y_2Z9cbgFEfBiP4_PbCz-56" target="3_p0a6_mJ6wkiOOG4HJC-59" edge="1">
                    <mxGeometry relative="1" as="geometry">
                        <mxPoint x="200" y="4850" as="targetPoint"/>
                        <mxPoint x="-1260" y="4820" as="sourcePoint"/>
                    </mxGeometry>
                </mxCell>
                <mxCell id="y_2Z9cbgFEfBiP4_PbCz-49" style="edgeStyle=none;rounded=0;orthogonalLoop=1;jettySize=auto;html=1;endArrow=none;endFill=0;entryX=0;entryY=0.5;entryDx=0;entryDy=0;exitX=0.5;exitY=0.5;exitDx=0;exitDy=0;exitPerimeter=0;" parent="1" source="y_2Z9cbgFEfBiP4_PbCz-56" target="3_p0a6_mJ6wkiOOG4HJC-60" edge="1">
                    <mxGeometry relative="1" as="geometry">
                        <mxPoint x="150" y="5190" as="targetPoint"/>
                        <mxPoint x="-1000" y="4742.222086588542" as="sourcePoint"/>
                    </mxGeometry>
                </mxCell>
                <mxCell id="y_2Z9cbgFEfBiP4_PbCz-50" style="edgeStyle=none;rounded=0;orthogonalLoop=1;jettySize=auto;html=1;endArrow=none;endFill=0;entryX=0;entryY=0.5;entryDx=0;entryDy=0;exitX=0.5;exitY=0.5;exitDx=0;exitDy=0;exitPerimeter=0;" parent="1" source="y_2Z9cbgFEfBiP4_PbCz-56" target="3_p0a6_mJ6wkiOOG4HJC-62" edge="1">
                    <mxGeometry relative="1" as="geometry">
                        <mxPoint x="-70" y="5140" as="targetPoint"/>
                        <mxPoint x="-1130" y="4750" as="sourcePoint"/>
                    </mxGeometry>
                </mxCell>
                <mxCell id="y_2Z9cbgFEfBiP4_PbCz-51" style="edgeStyle=none;rounded=0;orthogonalLoop=1;jettySize=auto;html=1;endArrow=none;endFill=0;entryX=0;entryY=0.5;entryDx=0;entryDy=0;exitX=0.5;exitY=0.5;exitDx=0;exitDy=0;exitPerimeter=0;" parent="1" source="y_2Z9cbgFEfBiP4_PbCz-56" target="3_p0a6_mJ6wkiOOG4HJC-61" edge="1">
                    <mxGeometry relative="1" as="geometry">
                        <mxPoint x="-270" y="5040" as="targetPoint"/>
                        <mxPoint x="-1240" y="4893.3331298828125" as="sourcePoint"/>
                    </mxGeometry>
                </mxCell>
                <mxCell id="y_2Z9cbgFEfBiP4_PbCz-53" style="edgeStyle=none;rounded=0;orthogonalLoop=1;jettySize=auto;html=1;exitX=0.5;exitY=0.5;exitDx=0;exitDy=0;exitPerimeter=0;endArrow=none;endFill=0;entryX=0;entryY=0.5;entryDx=0;entryDy=0;" parent="1" source="3_p0a6_mJ6wkiOOG4HJC-63" target="y_2Z9cbgFEfBiP4_PbCz-45" edge="1">
                    <mxGeometry relative="1" as="geometry">
                        <mxPoint x="-580" y="4890" as="targetPoint"/>
                    </mxGeometry>
                </mxCell>
                <mxCell id="y_2Z9cbgFEfBiP4_PbCz-58" style="edgeStyle=orthogonalEdgeStyle;rounded=0;orthogonalLoop=1;jettySize=auto;html=1;endArrow=block;endFill=0;exitX=0.5;exitY=0;exitDx=0;exitDy=0;exitPerimeter=0;" parent="1" source="3_p0a6_mJ6wkiOOG4HJC-65" target="3_p0a6_mJ6wkiOOG4HJC-63" edge="1">
                    <mxGeometry relative="1" as="geometry">
                        <mxPoint x="-1262" y="3300" as="targetPoint"/>
                    </mxGeometry>
                </mxCell>
                <mxCell id="y_2Z9cbgFEfBiP4_PbCz-59" style="edgeStyle=orthogonalEdgeStyle;rounded=0;orthogonalLoop=1;jettySize=auto;html=1;endArrow=block;endFill=0;exitX=0.5;exitY=0;exitDx=0;exitDy=0;exitPerimeter=0;" parent="1" source="y_2Z9cbgFEfBiP4_PbCz-56" target="3_p0a6_mJ6wkiOOG4HJC-63" edge="1">
                    <mxGeometry relative="1" as="geometry">
                        <mxPoint x="-1300" y="3369" as="targetPoint"/>
                        <mxPoint x="-1292" y="3349" as="sourcePoint"/>
                        <Array as="points">
                            <mxPoint x="-1280" y="4640"/>
                            <mxPoint x="-1280" y="2319"/>
                        </Array>
                    </mxGeometry>
                </mxCell>
                <mxCell id="3_p0a6_mJ6wkiOOG4HJC-63" value="fisher" style="shape=umlActor;html=1;verticalLabelPosition=bottom;verticalAlign=top;align=center;" parent="1" vertex="1">
                    <mxGeometry x="-1220" y="2289" width="30" height="60" as="geometry"/>
                </mxCell>
                <mxCell id="3_p0a6_mJ6wkiOOG4HJC-65" value="employee &lt;br&gt;fisher" style="shape=umlActor;html=1;verticalLabelPosition=bottom;verticalAlign=top;align=center;" parent="1" vertex="1">
                    <mxGeometry x="-1220" y="2420" width="30" height="60" as="geometry"/>
                </mxCell>
                <mxCell id="y_2Z9cbgFEfBiP4_PbCz-99" style="rounded=0;orthogonalLoop=1;jettySize=auto;html=1;exitX=0.5;exitY=0.5;exitDx=0;exitDy=0;exitPerimeter=0;entryX=0;entryY=0.5;entryDx=0;entryDy=0;endArrow=none;endFill=0;" parent="1" source="3_p0a6_mJ6wkiOOG4HJC-66" target="3_p0a6_mJ6wkiOOG4HJC-106" edge="1">
                    <mxGeometry relative="1" as="geometry"/>
                </mxCell>
                <mxCell id="y_2Z9cbgFEfBiP4_PbCz-102" style="edgeStyle=none;rounded=0;orthogonalLoop=1;jettySize=auto;html=1;exitX=0.5;exitY=0.5;exitDx=0;exitDy=0;exitPerimeter=0;entryX=0;entryY=0.5;entryDx=0;entryDy=0;endArrow=none;endFill=0;" parent="1" source="y_2Z9cbgFEfBiP4_PbCz-71" target="3_p0a6_mJ6wkiOOG4HJC-37" edge="1">
                    <mxGeometry relative="1" as="geometry"/>
                </mxCell>
                <mxCell id="y_2Z9cbgFEfBiP4_PbCz-104" style="edgeStyle=none;rounded=0;orthogonalLoop=1;jettySize=auto;html=1;exitX=0.5;exitY=0.5;exitDx=0;exitDy=0;exitPerimeter=0;entryX=0;entryY=0.5;entryDx=0;entryDy=0;endArrow=none;endFill=0;" parent="1" source="3_p0a6_mJ6wkiOOG4HJC-66" target="3_p0a6_mJ6wkiOOG4HJC-35" edge="1">
                    <mxGeometry relative="1" as="geometry"/>
                </mxCell>
                <mxCell id="3_p0a6_mJ6wkiOOG4HJC-66" value="freelancer &lt;br&gt;delivery man" style="shape=umlActor;html=1;verticalLabelPosition=bottom;verticalAlign=top;align=center;" parent="1" vertex="1">
                    <mxGeometry x="-1100" y="5103" width="30" height="60" as="geometry"/>
                </mxCell>
                <mxCell id="3_p0a6_mJ6wkiOOG4HJC-72" value="employee &lt;br&gt;delivery man" style="shape=umlActor;html=1;verticalLabelPosition=bottom;verticalAlign=top;align=center;" parent="1" vertex="1">
                    <mxGeometry x="-1190" y="5103" width="30" height="60" as="geometry"/>
                </mxCell>
                <mxCell id="y_2Z9cbgFEfBiP4_PbCz-65" style="rounded=0;orthogonalLoop=1;jettySize=auto;html=1;exitX=0.5;exitY=0.5;exitDx=0;exitDy=0;exitPerimeter=0;entryX=0;entryY=0.5;entryDx=0;entryDy=0;endArrow=none;endFill=0;" parent="1" source="3_p0a6_mJ6wkiOOG4HJC-73" target="3_p0a6_mJ6wkiOOG4HJC-74" edge="1">
                    <mxGeometry relative="1" as="geometry"/>
                </mxCell>
                <mxCell id="y_2Z9cbgFEfBiP4_PbCz-66" style="edgeStyle=none;rounded=0;orthogonalLoop=1;jettySize=auto;html=1;exitX=0.5;exitY=0.5;exitDx=0;exitDy=0;exitPerimeter=0;entryX=0;entryY=0.5;entryDx=0;entryDy=0;endArrow=none;endFill=0;" parent="1" source="3_p0a6_mJ6wkiOOG4HJC-73" target="3_p0a6_mJ6wkiOOG4HJC-53" edge="1">
                    <mxGeometry relative="1" as="geometry"/>
                </mxCell>
                <mxCell id="y_2Z9cbgFEfBiP4_PbCz-67" style="edgeStyle=none;rounded=0;orthogonalLoop=1;jettySize=auto;html=1;exitX=0.5;exitY=0.5;exitDx=0;exitDy=0;exitPerimeter=0;entryX=0;entryY=0.5;entryDx=0;entryDy=0;endArrow=none;endFill=0;" parent="1" source="3_p0a6_mJ6wkiOOG4HJC-73" target="3_p0a6_mJ6wkiOOG4HJC-54" edge="1">
                    <mxGeometry relative="1" as="geometry"/>
                </mxCell>
                <mxCell id="y_2Z9cbgFEfBiP4_PbCz-68" style="edgeStyle=none;rounded=0;orthogonalLoop=1;jettySize=auto;html=1;exitX=0.5;exitY=0.5;exitDx=0;exitDy=0;exitPerimeter=0;entryX=0;entryY=0.5;entryDx=0;entryDy=0;endArrow=none;endFill=0;" parent="1" source="3_p0a6_mJ6wkiOOG4HJC-73" target="3_p0a6_mJ6wkiOOG4HJC-55" edge="1">
                    <mxGeometry relative="1" as="geometry"/>
                </mxCell>
                <mxCell id="y_2Z9cbgFEfBiP4_PbCz-69" style="edgeStyle=none;rounded=0;orthogonalLoop=1;jettySize=auto;html=1;exitX=0.5;exitY=0.5;exitDx=0;exitDy=0;exitPerimeter=0;entryX=0;entryY=0.5;entryDx=0;entryDy=0;endArrow=none;endFill=0;" parent="1" source="3_p0a6_mJ6wkiOOG4HJC-73" target="3_p0a6_mJ6wkiOOG4HJC-57" edge="1">
                    <mxGeometry relative="1" as="geometry"/>
                </mxCell>
                <mxCell id="y_2Z9cbgFEfBiP4_PbCz-70" style="edgeStyle=none;rounded=0;orthogonalLoop=1;jettySize=auto;html=1;exitX=0.5;exitY=0.5;exitDx=0;exitDy=0;exitPerimeter=0;entryX=0;entryY=0.5;entryDx=0;entryDy=0;endArrow=none;endFill=0;" parent="1" source="3_p0a6_mJ6wkiOOG4HJC-73" target="3_p0a6_mJ6wkiOOG4HJC-56" edge="1">
                    <mxGeometry relative="1" as="geometry"/>
                </mxCell>
                <mxCell id="y_2Z9cbgFEfBiP4_PbCz-79" style="edgeStyle=none;rounded=0;orthogonalLoop=1;jettySize=auto;html=1;exitX=0.5;exitY=0.5;exitDx=0;exitDy=0;exitPerimeter=0;entryX=0;entryY=0.5;entryDx=0;entryDy=0;endArrow=none;endFill=0;" parent="1" source="3_p0a6_mJ6wkiOOG4HJC-73" target="y_2Z9cbgFEfBiP4_PbCz-45" edge="1">
                    <mxGeometry relative="1" as="geometry"/>
                </mxCell>
                <mxCell id="y_2Z9cbgFEfBiP4_PbCz-80" style="edgeStyle=none;rounded=0;orthogonalLoop=1;jettySize=auto;html=1;exitX=0.5;exitY=0.5;exitDx=0;exitDy=0;exitPerimeter=0;entryX=0;entryY=0.5;entryDx=0;entryDy=0;endArrow=none;endFill=0;" parent="1" source="3_p0a6_mJ6wkiOOG4HJC-73" target="y_2Z9cbgFEfBiP4_PbCz-3" edge="1">
                    <mxGeometry relative="1" as="geometry"/>
                </mxCell>
                <mxCell id="3_p0a6_mJ6wkiOOG4HJC-73" value="client" style="shape=umlActor;html=1;verticalLabelPosition=bottom;verticalAlign=top;align=center;" parent="1" vertex="1">
                    <mxGeometry x="-780" y="5340" width="30" height="60" as="geometry"/>
                </mxCell>
                <mxCell id="3_p0a6_mJ6wkiOOG4HJC-74" value="buy fish&lt;br&gt;product&lt;br&gt;and fishing equipement" style="ellipse;whiteSpace=wrap;html=1;" parent="1" vertex="1">
                    <mxGeometry x="300" y="4380" width="100" height="80" as="geometry"/>
                </mxCell>
                <mxCell id="3_p0a6_mJ6wkiOOG4HJC-75" value="buy boats" style="ellipse;whiteSpace=wrap;html=1;" parent="1" vertex="1">
                    <mxGeometry x="320" y="4540" width="100" height="80" as="geometry"/>
                </mxCell>
                <mxCell id="3_p0a6_mJ6wkiOOG4HJC-89" value="Create freelance&lt;br&gt;fisher account" style="ellipse;whiteSpace=wrap;html=1;" parent="1" vertex="1">
                    <mxGeometry x="321" y="1426" width="100" height="80" as="geometry"/>
                </mxCell>
                <mxCell id="3_p0a6_mJ6wkiOOG4HJC-96" value="Create freelance&lt;br&gt;boats" style="ellipse;whiteSpace=wrap;html=1;" parent="1" vertex="1">
                    <mxGeometry x="320" y="2010" width="100" height="80" as="geometry"/>
                </mxCell>
                <mxCell id="3_p0a6_mJ6wkiOOG4HJC-102" value="Create freelance&lt;br&gt;vehicle" style="ellipse;whiteSpace=wrap;html=1;" parent="1" vertex="1">
                    <mxGeometry x="320" y="2585" width="100" height="80" as="geometry"/>
                </mxCell>
                <mxCell id="3_p0a6_mJ6wkiOOG4HJC-106" value="Create freelance&lt;br&gt;delivery man account" style="ellipse;whiteSpace=wrap;html=1;" parent="1" vertex="1">
                    <mxGeometry x="316" y="3164" width="110" height="85" as="geometry"/>
                </mxCell>
                <mxCell id="3_p0a6_mJ6wkiOOG4HJC-112" value="Create freelance fihsers fishing trips" style="ellipse;whiteSpace=wrap;html=1;" parent="1" vertex="1">
                    <mxGeometry x="315" y="3768" width="110" height="90" as="geometry"/>
                </mxCell>
                <mxCell id="y_2Z9cbgFEfBiP4_PbCz-2" style="edgeStyle=orthogonalEdgeStyle;rounded=0;orthogonalLoop=1;jettySize=auto;html=1;exitX=0.5;exitY=1;exitDx=0;exitDy=0;" parent="1" source="3_p0a6_mJ6wkiOOG4HJC-112" target="3_p0a6_mJ6wkiOOG4HJC-112" edge="1">
                    <mxGeometry relative="1" as="geometry"/>
                </mxCell>
                <mxCell id="y_2Z9cbgFEfBiP4_PbCz-6" style="edgeStyle=orthogonalEdgeStyle;rounded=0;orthogonalLoop=1;jettySize=auto;html=1;exitX=1;exitY=0.5;exitDx=0;exitDy=0;dashed=1;dashPattern=12 12;" parent="1" source="y_2Z9cbgFEfBiP4_PbCz-3" target="y_2Z9cbgFEfBiP4_PbCz-4" edge="1">
                    <mxGeometry relative="1" as="geometry"/>
                </mxCell>
                <mxCell id="y_2Z9cbgFEfBiP4_PbCz-7" value="&amp;lt;&amp;lt; include &amp;gt;&amp;gt;" style="edgeLabel;html=1;align=center;verticalAlign=middle;resizable=0;points=[];" parent="y_2Z9cbgFEfBiP4_PbCz-6" vertex="1" connectable="0">
                    <mxGeometry x="0.2398" y="-1" relative="1" as="geometry">
                        <mxPoint x="-15" as="offset"/>
                    </mxGeometry>
                </mxCell>
                <mxCell id="y_2Z9cbgFEfBiP4_PbCz-3" value="forogot &lt;br&gt;password" style="ellipse;whiteSpace=wrap;html=1;" parent="1" vertex="1">
                    <mxGeometry x="316" y="60" width="100" height="80" as="geometry"/>
                </mxCell>
                <mxCell id="y_2Z9cbgFEfBiP4_PbCz-4" value="Registered&amp;nbsp;" style="ellipse;whiteSpace=wrap;html=1;" parent="1" vertex="1">
                    <mxGeometry x="640" y="60" width="100" height="80" as="geometry"/>
                </mxCell>
                <mxCell id="y_2Z9cbgFEfBiP4_PbCz-8" value="authenticated" style="ellipse;whiteSpace=wrap;html=1;" parent="1" vertex="1">
                    <mxGeometry x="1080" y="3100" width="140" height="110" as="geometry"/>
                </mxCell>
                <mxCell id="y_2Z9cbgFEfBiP4_PbCz-44" value="accept &lt;br&gt;candidate" style="ellipse;whiteSpace=wrap;html=1;" parent="1" vertex="1">
                    <mxGeometry x="321" y="5680" width="100" height="80" as="geometry"/>
                </mxCell>
                <mxCell id="y_2Z9cbgFEfBiP4_PbCz-45" value="logout" style="ellipse;whiteSpace=wrap;html=1;" parent="1" vertex="1">
                    <mxGeometry x="340" y="5960" width="100" height="80" as="geometry"/>
                </mxCell>
                <mxCell id="y_2Z9cbgFEfBiP4_PbCz-77" style="edgeStyle=none;rounded=0;orthogonalLoop=1;jettySize=auto;html=1;exitX=0.5;exitY=0.5;exitDx=0;exitDy=0;exitPerimeter=0;endArrow=none;endFill=0;entryX=0;entryY=0.5;entryDx=0;entryDy=0;" parent="1" source="y_2Z9cbgFEfBiP4_PbCz-56" target="2" edge="1">
                    <mxGeometry relative="1" as="geometry">
                        <mxPoint x="-20" y="4380" as="targetPoint"/>
                    </mxGeometry>
                </mxCell>
                <mxCell id="y_2Z9cbgFEfBiP4_PbCz-56" value="freelancer&lt;br&gt;&amp;nbsp;fisher" style="shape=umlActor;html=1;verticalLabelPosition=bottom;verticalAlign=top;align=center;" parent="1" vertex="1">
                    <mxGeometry x="-1293" y="4640" width="30" height="60" as="geometry"/>
                </mxCell>
                <mxCell id="y_2Z9cbgFEfBiP4_PbCz-78" style="edgeStyle=none;rounded=0;orthogonalLoop=1;jettySize=auto;html=1;exitX=0.5;exitY=0.5;exitDx=0;exitDy=0;exitPerimeter=0;endArrow=none;endFill=0;entryX=0;entryY=0.5;entryDx=0;entryDy=0;" parent="1" source="y_2Z9cbgFEfBiP4_PbCz-71" target="y_2Z9cbgFEfBiP4_PbCz-45" edge="1">
                    <mxGeometry relative="1" as="geometry">
                        <mxPoint x="-540" y="4850" as="targetPoint"/>
                    </mxGeometry>
                </mxCell>
                <mxCell id="y_2Z9cbgFEfBiP4_PbCz-81" style="edgeStyle=none;rounded=0;orthogonalLoop=1;jettySize=auto;html=1;exitX=0.5;exitY=0.5;exitDx=0;exitDy=0;exitPerimeter=0;endArrow=none;endFill=0;entryX=0;entryY=0.5;entryDx=0;entryDy=0;" parent="1" source="y_2Z9cbgFEfBiP4_PbCz-71" target="y_2Z9cbgFEfBiP4_PbCz-3" edge="1">
                    <mxGeometry relative="1" as="geometry">
                        <mxPoint x="80" y="900" as="targetPoint"/>
                    </mxGeometry>
                </mxCell>
                <mxCell id="y_2Z9cbgFEfBiP4_PbCz-93" style="edgeStyle=none;rounded=0;orthogonalLoop=1;jettySize=auto;html=1;exitX=0.5;exitY=0.5;exitDx=0;exitDy=0;exitPerimeter=0;endArrow=none;endFill=0;entryX=0.5;entryY=1;entryDx=0;entryDy=0;" parent="1" source="y_2Z9cbgFEfBiP4_PbCz-71" target="y_2Z9cbgFEfBiP4_PbCz-85" edge="1">
                    <mxGeometry relative="1" as="geometry">
                        <Array as="points">
                            <mxPoint x="300" y="4370"/>
                            <mxPoint x="390" y="4370"/>
                        </Array>
                    </mxGeometry>
                </mxCell>
                <mxCell id="y_2Z9cbgFEfBiP4_PbCz-96" style="edgeStyle=none;rounded=0;orthogonalLoop=1;jettySize=auto;html=1;exitX=0.5;exitY=0.5;exitDx=0;exitDy=0;exitPerimeter=0;entryX=0;entryY=0.5;entryDx=0;entryDy=0;endArrow=none;endFill=0;" parent="1" source="y_2Z9cbgFEfBiP4_PbCz-71" target="3_p0a6_mJ6wkiOOG4HJC-40" edge="1">
                    <mxGeometry relative="1" as="geometry"/>
                </mxCell>
                <mxCell id="y_2Z9cbgFEfBiP4_PbCz-97" style="edgeStyle=none;rounded=0;orthogonalLoop=1;jettySize=auto;html=1;exitX=0.5;exitY=0.5;exitDx=0;exitDy=0;exitPerimeter=0;endArrow=none;endFill=0;entryX=0;entryY=0.5;entryDx=0;entryDy=0;" parent="1" source="y_2Z9cbgFEfBiP4_PbCz-71" target="3_p0a6_mJ6wkiOOG4HJC-41" edge="1">
                    <mxGeometry relative="1" as="geometry">
                        <mxPoint x="-70" y="4180" as="targetPoint"/>
                    </mxGeometry>
                </mxCell>
                <mxCell id="y_2Z9cbgFEfBiP4_PbCz-100" style="edgeStyle=none;rounded=0;orthogonalLoop=1;jettySize=auto;html=1;exitX=0.5;exitY=0.5;exitDx=0;exitDy=0;exitPerimeter=0;endArrow=none;endFill=0;entryX=0;entryY=0.5;entryDx=0;entryDy=0;" parent="1" source="y_2Z9cbgFEfBiP4_PbCz-71" target="3_p0a6_mJ6wkiOOG4HJC-102" edge="1">
                    <mxGeometry relative="1" as="geometry">
                        <mxPoint x="41.11114501953125" y="4100" as="targetPoint"/>
                    </mxGeometry>
                </mxCell>
                <mxCell id="y_2Z9cbgFEfBiP4_PbCz-71" value="delivery man" style="shape=umlActor;html=1;verticalLabelPosition=bottom;verticalAlign=top;align=center;" parent="1" vertex="1">
                    <mxGeometry x="-1140" y="4973" width="30" height="60" as="geometry"/>
                </mxCell>
                <mxCell id="y_2Z9cbgFEfBiP4_PbCz-85" value="get delivery task" style="ellipse;whiteSpace=wrap;html=1;" parent="1" vertex="1">
                    <mxGeometry x="900" y="4411" width="100" height="80" as="geometry"/>
                </mxCell>
                <mxCell id="y_2Z9cbgFEfBiP4_PbCz-86" style="edgeStyle=orthogonalEdgeStyle;rounded=0;orthogonalLoop=1;jettySize=auto;html=1;exitX=0;exitY=0.5;exitDx=0;exitDy=0;dashed=1;dashPattern=12 12;entryX=1;entryY=0.5;entryDx=0;entryDy=0;" parent="1" source="y_2Z9cbgFEfBiP4_PbCz-85" target="3_p0a6_mJ6wkiOOG4HJC-74" edge="1">
                    <mxGeometry relative="1" as="geometry">
                        <mxPoint x="540" y="4431" as="sourcePoint"/>
                        <mxPoint x="426" y="4431" as="targetPoint"/>
                    </mxGeometry>
                </mxCell>
                <mxCell id="y_2Z9cbgFEfBiP4_PbCz-87" value="&amp;lt;&amp;lt; include &amp;gt;&amp;gt;" style="edgeLabel;html=1;align=center;verticalAlign=middle;resizable=0;points=[];" parent="y_2Z9cbgFEfBiP4_PbCz-86" vertex="1" connectable="0">
                    <mxGeometry x="0.2398" y="-1" relative="1" as="geometry">
                        <mxPoint x="17" as="offset"/>
                    </mxGeometry>
                </mxCell>
                <mxCell id="y_2Z9cbgFEfBiP4_PbCz-91" style="rounded=0;orthogonalLoop=1;jettySize=auto;html=1;exitX=0.5;exitY=0;exitDx=0;exitDy=0;dashed=1;dashPattern=12 12;entryX=1;entryY=0.5;entryDx=0;entryDy=0;edgeStyle=orthogonalEdgeStyle;" parent="1" source="y_2Z9cbgFEfBiP4_PbCz-85" target="3_p0a6_mJ6wkiOOG4HJC-5" edge="1">
                    <mxGeometry relative="1" as="geometry">
                        <mxPoint x="650" y="4350" as="sourcePoint"/>
                        <mxPoint x="460" y="4350" as="targetPoint"/>
                    </mxGeometry>
                </mxCell>
                <mxCell id="y_2Z9cbgFEfBiP4_PbCz-92" value="&amp;lt;&amp;lt; include &amp;gt;&amp;gt;" style="edgeLabel;html=1;align=center;verticalAlign=middle;resizable=0;points=[];" parent="y_2Z9cbgFEfBiP4_PbCz-91" vertex="1" connectable="0">
                    <mxGeometry x="0.2398" y="-1" relative="1" as="geometry">
                        <mxPoint x="17" as="offset"/>
                    </mxGeometry>
                </mxCell>
                <mxCell id="3_p0a6_mJ6wkiOOG4HJC-50" value="Create product" style="ellipse;whiteSpace=wrap;html=1;" parent="1" vertex="1">
                    <mxGeometry x="310" y="4281" width="100" height="80" as="geometry"/>
                </mxCell>
                <mxCell id="y_2Z9cbgFEfBiP4_PbCz-103" style="edgeStyle=none;rounded=0;orthogonalLoop=1;jettySize=auto;html=1;exitX=0.5;exitY=0.5;exitDx=0;exitDy=0;exitPerimeter=0;entryX=0;entryY=0.5;entryDx=0;entryDy=0;endArrow=none;endFill=0;" parent="1" source="3_p0a6_mJ6wkiOOG4HJC-66" target="3_p0a6_mJ6wkiOOG4HJC-36" edge="1">
                    <mxGeometry relative="1" as="geometry">
                        <mxPoint x="-1075" y="5143" as="sourcePoint"/>
                        <mxPoint x="330" y="2901" as="targetPoint"/>
                    </mxGeometry>
                </mxCell>
                <mxCell id="6s27l5ecv5DC3e-yi6R3-4" style="rounded=0;orthogonalLoop=1;jettySize=auto;html=1;exitX=1;exitY=0.5;exitDx=0;exitDy=0;entryX=0;entryY=0.5;entryDx=0;entryDy=0;dashed=1;dashPattern=12 12;" parent="1" source="3_p0a6_mJ6wkiOOG4HJC-6" target="y_2Z9cbgFEfBiP4_PbCz-8" edge="1">
                    <mxGeometry relative="1" as="geometry">
                        <mxPoint x="430" y="210" as="sourcePoint"/>
                        <mxPoint x="1090" y="3165" as="targetPoint"/>
                    </mxGeometry>
                </mxCell>
                <mxCell id="6s27l5ecv5DC3e-yi6R3-5" value="&amp;lt;&amp;lt; include &amp;gt;&amp;gt;" style="edgeLabel;html=1;align=center;verticalAlign=middle;resizable=0;points=[];" parent="6s27l5ecv5DC3e-yi6R3-4" vertex="1" connectable="0">
                    <mxGeometry x="-0.2127" y="7" relative="1" as="geometry">
                        <mxPoint y="1" as="offset"/>
                    </mxGeometry>
                </mxCell>
                <mxCell id="6s27l5ecv5DC3e-yi6R3-6" style="rounded=0;orthogonalLoop=1;jettySize=auto;html=1;exitX=1;exitY=0.5;exitDx=0;exitDy=0;entryX=0;entryY=0.5;entryDx=0;entryDy=0;dashed=1;dashPattern=12 12;" parent="1" source="3_p0a6_mJ6wkiOOG4HJC-8" target="y_2Z9cbgFEfBiP4_PbCz-8" edge="1">
                    <mxGeometry relative="1" as="geometry">
                        <mxPoint x="430" y="300" as="sourcePoint"/>
                        <mxPoint x="1090" y="3165" as="targetPoint"/>
                    </mxGeometry>
                </mxCell>
                <mxCell id="6s27l5ecv5DC3e-yi6R3-7" value="&amp;lt;&amp;lt; include &amp;gt;&amp;gt;" style="edgeLabel;html=1;align=center;verticalAlign=middle;resizable=0;points=[];" parent="6s27l5ecv5DC3e-yi6R3-6" vertex="1" connectable="0">
                    <mxGeometry x="-0.2127" y="7" relative="1" as="geometry">
                        <mxPoint y="1" as="offset"/>
                    </mxGeometry>
                </mxCell>
                <mxCell id="6s27l5ecv5DC3e-yi6R3-8" style="rounded=0;orthogonalLoop=1;jettySize=auto;html=1;exitX=1;exitY=0.5;exitDx=0;exitDy=0;entryX=0;entryY=0.5;entryDx=0;entryDy=0;dashed=1;dashPattern=12 12;" parent="1" source="3_p0a6_mJ6wkiOOG4HJC-7" target="y_2Z9cbgFEfBiP4_PbCz-8" edge="1">
                    <mxGeometry relative="1" as="geometry">
                        <mxPoint x="430" y="390" as="sourcePoint"/>
                        <mxPoint x="1100" y="3175" as="targetPoint"/>
                    </mxGeometry>
                </mxCell>
                <mxCell id="6s27l5ecv5DC3e-yi6R3-9" value="&amp;lt;&amp;lt; include &amp;gt;&amp;gt;" style="edgeLabel;html=1;align=center;verticalAlign=middle;resizable=0;points=[];" parent="6s27l5ecv5DC3e-yi6R3-8" vertex="1" connectable="0">
                    <mxGeometry x="-0.2127" y="7" relative="1" as="geometry">
                        <mxPoint y="1" as="offset"/>
                    </mxGeometry>
                </mxCell>
                <mxCell id="6s27l5ecv5DC3e-yi6R3-10" style="rounded=0;orthogonalLoop=1;jettySize=auto;html=1;exitX=1;exitY=0.5;exitDx=0;exitDy=0;entryX=0;entryY=0.5;entryDx=0;entryDy=0;dashed=1;dashPattern=12 12;" parent="1" source="3_p0a6_mJ6wkiOOG4HJC-9" target="y_2Z9cbgFEfBiP4_PbCz-8" edge="1">
                    <mxGeometry relative="1" as="geometry">
                        <mxPoint x="430" y="480" as="sourcePoint"/>
                        <mxPoint x="1110" y="3185" as="targetPoint"/>
                    </mxGeometry>
                </mxCell>
                <mxCell id="6s27l5ecv5DC3e-yi6R3-11" value="&amp;lt;&amp;lt; include &amp;gt;&amp;gt;" style="edgeLabel;html=1;align=center;verticalAlign=middle;resizable=0;points=[];" parent="6s27l5ecv5DC3e-yi6R3-10" vertex="1" connectable="0">
                    <mxGeometry x="-0.2127" y="7" relative="1" as="geometry">
                        <mxPoint y="1" as="offset"/>
                    </mxGeometry>
                </mxCell>
                <mxCell id="6s27l5ecv5DC3e-yi6R3-12" style="rounded=0;orthogonalLoop=1;jettySize=auto;html=1;exitX=1;exitY=0.5;exitDx=0;exitDy=0;entryX=0;entryY=0.5;entryDx=0;entryDy=0;dashed=1;dashPattern=12 12;" parent="1" source="3_p0a6_mJ6wkiOOG4HJC-10" target="y_2Z9cbgFEfBiP4_PbCz-8" edge="1">
                    <mxGeometry relative="1" as="geometry">
                        <mxPoint x="430" y="608" as="sourcePoint"/>
                        <mxPoint x="1120" y="3195" as="targetPoint"/>
                    </mxGeometry>
                </mxCell>
                <mxCell id="6s27l5ecv5DC3e-yi6R3-13" value="&amp;lt;&amp;lt; include &amp;gt;&amp;gt;" style="edgeLabel;html=1;align=center;verticalAlign=middle;resizable=0;points=[];" parent="6s27l5ecv5DC3e-yi6R3-12" vertex="1" connectable="0">
                    <mxGeometry x="-0.2127" y="7" relative="1" as="geometry">
                        <mxPoint y="1" as="offset"/>
                    </mxGeometry>
                </mxCell>
                <mxCell id="6s27l5ecv5DC3e-yi6R3-14" style="rounded=0;orthogonalLoop=1;jettySize=auto;html=1;exitX=1;exitY=0.5;exitDx=0;exitDy=0;entryX=0;entryY=0.5;entryDx=0;entryDy=0;dashed=1;dashPattern=12 12;" parent="1" source="3_p0a6_mJ6wkiOOG4HJC-12" target="y_2Z9cbgFEfBiP4_PbCz-8" edge="1">
                    <mxGeometry relative="1" as="geometry">
                        <mxPoint x="430" y="698" as="sourcePoint"/>
                        <mxPoint x="1130" y="3205" as="targetPoint"/>
                    </mxGeometry>
                </mxCell>
                <mxCell id="6s27l5ecv5DC3e-yi6R3-15" value="&amp;lt;&amp;lt; include &amp;gt;&amp;gt;" style="edgeLabel;html=1;align=center;verticalAlign=middle;resizable=0;points=[];" parent="6s27l5ecv5DC3e-yi6R3-14" vertex="1" connectable="0">
                    <mxGeometry x="-0.2127" y="7" relative="1" as="geometry">
                        <mxPoint y="1" as="offset"/>
                    </mxGeometry>
                </mxCell>
                <mxCell id="6s27l5ecv5DC3e-yi6R3-16" style="rounded=0;orthogonalLoop=1;jettySize=auto;html=1;exitX=1;exitY=0.5;exitDx=0;exitDy=0;entryX=0;entryY=0.5;entryDx=0;entryDy=0;dashed=1;dashPattern=12 12;" parent="1" source="3_p0a6_mJ6wkiOOG4HJC-11" target="y_2Z9cbgFEfBiP4_PbCz-8" edge="1">
                    <mxGeometry relative="1" as="geometry">
                        <mxPoint x="430" y="788" as="sourcePoint"/>
                        <mxPoint x="1140" y="3215" as="targetPoint"/>
                    </mxGeometry>
                </mxCell>
                <mxCell id="6s27l5ecv5DC3e-yi6R3-17" value="&amp;lt;&amp;lt; include &amp;gt;&amp;gt;" style="edgeLabel;html=1;align=center;verticalAlign=middle;resizable=0;points=[];" parent="6s27l5ecv5DC3e-yi6R3-16" vertex="1" connectable="0">
                    <mxGeometry x="-0.2127" y="7" relative="1" as="geometry">
                        <mxPoint y="1" as="offset"/>
                    </mxGeometry>
                </mxCell>
                <mxCell id="6s27l5ecv5DC3e-yi6R3-18" style="rounded=0;orthogonalLoop=1;jettySize=auto;html=1;exitX=1;exitY=0.5;exitDx=0;exitDy=0;entryX=0;entryY=0.5;entryDx=0;entryDy=0;dashed=1;dashPattern=12 12;" parent="1" source="3_p0a6_mJ6wkiOOG4HJC-14" target="y_2Z9cbgFEfBiP4_PbCz-8" edge="1">
                    <mxGeometry relative="1" as="geometry">
                        <mxPoint x="430" y="878" as="sourcePoint"/>
                        <mxPoint x="1150" y="3225" as="targetPoint"/>
                    </mxGeometry>
                </mxCell>
                <mxCell id="6s27l5ecv5DC3e-yi6R3-19" value="&amp;lt;&amp;lt; include &amp;gt;&amp;gt;" style="edgeLabel;html=1;align=center;verticalAlign=middle;resizable=0;points=[];" parent="6s27l5ecv5DC3e-yi6R3-18" vertex="1" connectable="0">
                    <mxGeometry x="-0.2127" y="7" relative="1" as="geometry">
                        <mxPoint y="1" as="offset"/>
                    </mxGeometry>
                </mxCell>
                <mxCell id="6s27l5ecv5DC3e-yi6R3-20" style="rounded=0;orthogonalLoop=1;jettySize=auto;html=1;exitX=1;exitY=0.5;exitDx=0;exitDy=0;entryX=0;entryY=0.5;entryDx=0;entryDy=0;dashed=1;dashPattern=12 12;" parent="1" source="3_p0a6_mJ6wkiOOG4HJC-15" target="y_2Z9cbgFEfBiP4_PbCz-8" edge="1">
                    <mxGeometry relative="1" as="geometry">
                        <mxPoint x="430" y="994" as="sourcePoint"/>
                        <mxPoint x="1160" y="3235" as="targetPoint"/>
                    </mxGeometry>
                </mxCell>
                <mxCell id="6s27l5ecv5DC3e-yi6R3-21" value="&amp;lt;&amp;lt; include &amp;gt;&amp;gt;" style="edgeLabel;html=1;align=center;verticalAlign=middle;resizable=0;points=[];" parent="6s27l5ecv5DC3e-yi6R3-20" vertex="1" connectable="0">
                    <mxGeometry x="-0.2127" y="7" relative="1" as="geometry">
                        <mxPoint y="1" as="offset"/>
                    </mxGeometry>
                </mxCell>
                <mxCell id="6s27l5ecv5DC3e-yi6R3-22" style="rounded=0;orthogonalLoop=1;jettySize=auto;html=1;exitX=1;exitY=0.5;exitDx=0;exitDy=0;entryX=0;entryY=0.5;entryDx=0;entryDy=0;dashed=1;dashPattern=12 12;" parent="1" source="3_p0a6_mJ6wkiOOG4HJC-17" target="y_2Z9cbgFEfBiP4_PbCz-8" edge="1">
                    <mxGeometry relative="1" as="geometry">
                        <mxPoint x="430" y="1084" as="sourcePoint"/>
                        <mxPoint x="1170" y="3245" as="targetPoint"/>
                    </mxGeometry>
                </mxCell>
                <mxCell id="6s27l5ecv5DC3e-yi6R3-23" value="&amp;lt;&amp;lt; include &amp;gt;&amp;gt;" style="edgeLabel;html=1;align=center;verticalAlign=middle;resizable=0;points=[];" parent="6s27l5ecv5DC3e-yi6R3-22" vertex="1" connectable="0">
                    <mxGeometry x="-0.2127" y="7" relative="1" as="geometry">
                        <mxPoint y="1" as="offset"/>
                    </mxGeometry>
                </mxCell>
                <mxCell id="6s27l5ecv5DC3e-yi6R3-24" style="rounded=0;orthogonalLoop=1;jettySize=auto;html=1;exitX=1;exitY=0.5;exitDx=0;exitDy=0;entryX=0;entryY=0.5;entryDx=0;entryDy=0;dashed=1;dashPattern=12 12;" parent="1" source="3_p0a6_mJ6wkiOOG4HJC-16" target="y_2Z9cbgFEfBiP4_PbCz-8" edge="1">
                    <mxGeometry relative="1" as="geometry">
                        <mxPoint x="430" y="1174" as="sourcePoint"/>
                        <mxPoint x="1180" y="3255" as="targetPoint"/>
                    </mxGeometry>
                </mxCell>
                <mxCell id="6s27l5ecv5DC3e-yi6R3-25" value="&amp;lt;&amp;lt; include &amp;gt;&amp;gt;" style="edgeLabel;html=1;align=center;verticalAlign=middle;resizable=0;points=[];" parent="6s27l5ecv5DC3e-yi6R3-24" vertex="1" connectable="0">
                    <mxGeometry x="-0.2127" y="7" relative="1" as="geometry">
                        <mxPoint y="1" as="offset"/>
                    </mxGeometry>
                </mxCell>
                <mxCell id="6s27l5ecv5DC3e-yi6R3-26" style="rounded=0;orthogonalLoop=1;jettySize=auto;html=1;exitX=1;exitY=0.5;exitDx=0;exitDy=0;entryX=0;entryY=0.5;entryDx=0;entryDy=0;dashed=1;dashPattern=12 12;" parent="1" source="3_p0a6_mJ6wkiOOG4HJC-18" target="y_2Z9cbgFEfBiP4_PbCz-8" edge="1">
                    <mxGeometry relative="1" as="geometry">
                        <mxPoint x="430" y="1264" as="sourcePoint"/>
                        <mxPoint x="1190" y="3265" as="targetPoint"/>
                    </mxGeometry>
                </mxCell>
                <mxCell id="6s27l5ecv5DC3e-yi6R3-27" value="&amp;lt;&amp;lt; include &amp;gt;&amp;gt;" style="edgeLabel;html=1;align=center;verticalAlign=middle;resizable=0;points=[];" parent="6s27l5ecv5DC3e-yi6R3-26" vertex="1" connectable="0">
                    <mxGeometry x="-0.2127" y="7" relative="1" as="geometry">
                        <mxPoint y="1" as="offset"/>
                    </mxGeometry>
                </mxCell>
                <mxCell id="6s27l5ecv5DC3e-yi6R3-30" style="rounded=0;orthogonalLoop=1;jettySize=auto;html=1;exitX=1;exitY=0.5;exitDx=0;exitDy=0;entryX=0;entryY=0.5;entryDx=0;entryDy=0;dashed=1;dashPattern=12 12;" parent="1" source="3_p0a6_mJ6wkiOOG4HJC-22" target="y_2Z9cbgFEfBiP4_PbCz-8" edge="1">
                    <mxGeometry relative="1" as="geometry">
                        <mxPoint x="431" y="1476" as="sourcePoint"/>
                        <mxPoint x="1210" y="3285" as="targetPoint"/>
                    </mxGeometry>
                </mxCell>
                <mxCell id="6s27l5ecv5DC3e-yi6R3-31" value="&amp;lt;&amp;lt; include &amp;gt;&amp;gt;" style="edgeLabel;html=1;align=center;verticalAlign=middle;resizable=0;points=[];" parent="6s27l5ecv5DC3e-yi6R3-30" vertex="1" connectable="0">
                    <mxGeometry x="-0.2127" y="7" relative="1" as="geometry">
                        <mxPoint y="1" as="offset"/>
                    </mxGeometry>
                </mxCell>
                <mxCell id="6s27l5ecv5DC3e-yi6R3-32" style="rounded=0;orthogonalLoop=1;jettySize=auto;html=1;exitX=1;exitY=0.5;exitDx=0;exitDy=0;dashed=1;dashPattern=12 12;entryX=0;entryY=0.5;entryDx=0;entryDy=0;" parent="1" source="3_p0a6_mJ6wkiOOG4HJC-19" target="y_2Z9cbgFEfBiP4_PbCz-8" edge="1">
                    <mxGeometry relative="1" as="geometry">
                        <mxPoint x="430" y="1575" as="sourcePoint"/>
                        <mxPoint x="1220" y="3295" as="targetPoint"/>
                    </mxGeometry>
                </mxCell>
                <mxCell id="6s27l5ecv5DC3e-yi6R3-33" value="&amp;lt;&amp;lt; include &amp;gt;&amp;gt;" style="edgeLabel;html=1;align=center;verticalAlign=middle;resizable=0;points=[];" parent="6s27l5ecv5DC3e-yi6R3-32" vertex="1" connectable="0">
                    <mxGeometry x="-0.2127" y="7" relative="1" as="geometry">
                        <mxPoint y="1" as="offset"/>
                    </mxGeometry>
                </mxCell>
                <mxCell id="6s27l5ecv5DC3e-yi6R3-34" style="rounded=0;orthogonalLoop=1;jettySize=auto;html=1;exitX=1;exitY=0.5;exitDx=0;exitDy=0;entryX=0;entryY=0.5;entryDx=0;entryDy=0;dashed=1;dashPattern=12 12;" parent="1" source="3_p0a6_mJ6wkiOOG4HJC-21" target="y_2Z9cbgFEfBiP4_PbCz-8" edge="1">
                    <mxGeometry relative="1" as="geometry">
                        <mxPoint x="430" y="1661" as="sourcePoint"/>
                        <mxPoint x="1230" y="3305" as="targetPoint"/>
                    </mxGeometry>
                </mxCell>
                <mxCell id="6s27l5ecv5DC3e-yi6R3-35" value="&amp;lt;&amp;lt; include &amp;gt;&amp;gt;" style="edgeLabel;html=1;align=center;verticalAlign=middle;resizable=0;points=[];" parent="6s27l5ecv5DC3e-yi6R3-34" vertex="1" connectable="0">
                    <mxGeometry x="-0.2127" y="7" relative="1" as="geometry">
                        <mxPoint y="1" as="offset"/>
                    </mxGeometry>
                </mxCell>
                <mxCell id="6s27l5ecv5DC3e-yi6R3-36" style="rounded=0;orthogonalLoop=1;jettySize=auto;html=1;exitX=1;exitY=0.5;exitDx=0;exitDy=0;entryX=0;entryY=0.5;entryDx=0;entryDy=0;dashed=1;dashPattern=12 12;" parent="1" source="3_p0a6_mJ6wkiOOG4HJC-20" target="y_2Z9cbgFEfBiP4_PbCz-8" edge="1">
                    <mxGeometry relative="1" as="geometry">
                        <mxPoint x="430" y="1751" as="sourcePoint"/>
                        <mxPoint x="1240" y="3315" as="targetPoint"/>
                    </mxGeometry>
                </mxCell>
                <mxCell id="6s27l5ecv5DC3e-yi6R3-37" value="&amp;lt;&amp;lt; include &amp;gt;&amp;gt;" style="edgeLabel;html=1;align=center;verticalAlign=middle;resizable=0;points=[];" parent="6s27l5ecv5DC3e-yi6R3-36" vertex="1" connectable="0">
                    <mxGeometry x="-0.2127" y="7" relative="1" as="geometry">
                        <mxPoint y="1" as="offset"/>
                    </mxGeometry>
                </mxCell>
                <mxCell id="6s27l5ecv5DC3e-yi6R3-38" style="rounded=0;orthogonalLoop=1;jettySize=auto;html=1;exitX=1;exitY=0.5;exitDx=0;exitDy=0;entryX=0;entryY=0.5;entryDx=0;entryDy=0;dashed=1;dashPattern=12 12;" parent="1" source="3_p0a6_mJ6wkiOOG4HJC-29" target="y_2Z9cbgFEfBiP4_PbCz-8" edge="1">
                    <mxGeometry relative="1" as="geometry">
                        <mxPoint x="430" y="1842" as="sourcePoint"/>
                        <mxPoint x="1250" y="3325" as="targetPoint"/>
                    </mxGeometry>
                </mxCell>
                <mxCell id="6s27l5ecv5DC3e-yi6R3-39" value="&amp;lt;&amp;lt; include &amp;gt;&amp;gt;" style="edgeLabel;html=1;align=center;verticalAlign=middle;resizable=0;points=[];" parent="6s27l5ecv5DC3e-yi6R3-38" vertex="1" connectable="0">
                    <mxGeometry x="-0.2127" y="7" relative="1" as="geometry">
                        <mxPoint y="1" as="offset"/>
                    </mxGeometry>
                </mxCell>
                <mxCell id="6s27l5ecv5DC3e-yi6R3-40" style="rounded=0;orthogonalLoop=1;jettySize=auto;html=1;exitX=1;exitY=0.5;exitDx=0;exitDy=0;entryX=0;entryY=0.5;entryDx=0;entryDy=0;dashed=1;dashPattern=12 12;" parent="1" source="3_p0a6_mJ6wkiOOG4HJC-96" target="y_2Z9cbgFEfBiP4_PbCz-8" edge="1">
                    <mxGeometry relative="1" as="geometry">
                        <mxPoint x="430" y="1965" as="sourcePoint"/>
                        <mxPoint x="1260" y="3335" as="targetPoint"/>
                    </mxGeometry>
                </mxCell>
                <mxCell id="6s27l5ecv5DC3e-yi6R3-41" value="&amp;lt;&amp;lt; include &amp;gt;&amp;gt;" style="edgeLabel;html=1;align=center;verticalAlign=middle;resizable=0;points=[];" parent="6s27l5ecv5DC3e-yi6R3-40" vertex="1" connectable="0">
                    <mxGeometry x="-0.2127" y="7" relative="1" as="geometry">
                        <mxPoint y="1" as="offset"/>
                    </mxGeometry>
                </mxCell>
                <mxCell id="6s27l5ecv5DC3e-yi6R3-42" style="rounded=0;orthogonalLoop=1;jettySize=auto;html=1;exitX=1;exitY=0.5;exitDx=0;exitDy=0;entryX=0;entryY=0.5;entryDx=0;entryDy=0;dashed=1;dashPattern=12 12;" parent="1" source="3_p0a6_mJ6wkiOOG4HJC-33" target="y_2Z9cbgFEfBiP4_PbCz-8" edge="1">
                    <mxGeometry relative="1" as="geometry">
                        <mxPoint x="430" y="2060" as="sourcePoint"/>
                        <mxPoint x="1270" y="3345" as="targetPoint"/>
                    </mxGeometry>
                </mxCell>
                <mxCell id="6s27l5ecv5DC3e-yi6R3-43" value="&amp;lt;&amp;lt; include &amp;gt;&amp;gt;" style="edgeLabel;html=1;align=center;verticalAlign=middle;resizable=0;points=[];" parent="6s27l5ecv5DC3e-yi6R3-42" vertex="1" connectable="0">
                    <mxGeometry x="-0.2127" y="7" relative="1" as="geometry">
                        <mxPoint y="1" as="offset"/>
                    </mxGeometry>
                </mxCell>
                <mxCell id="6s27l5ecv5DC3e-yi6R3-44" style="rounded=0;orthogonalLoop=1;jettySize=auto;html=1;exitX=1;exitY=0.5;exitDx=0;exitDy=0;entryX=0;entryY=0.5;entryDx=0;entryDy=0;dashed=1;dashPattern=12 12;" parent="1" source="3_p0a6_mJ6wkiOOG4HJC-30" target="y_2Z9cbgFEfBiP4_PbCz-8" edge="1">
                    <mxGeometry relative="1" as="geometry">
                        <mxPoint x="430" y="2153" as="sourcePoint"/>
                        <mxPoint x="1280" y="3355" as="targetPoint"/>
                    </mxGeometry>
                </mxCell>
                <mxCell id="6s27l5ecv5DC3e-yi6R3-45" value="&amp;lt;&amp;lt; include &amp;gt;&amp;gt;" style="edgeLabel;html=1;align=center;verticalAlign=middle;resizable=0;points=[];" parent="6s27l5ecv5DC3e-yi6R3-44" vertex="1" connectable="0">
                    <mxGeometry x="-0.2127" y="7" relative="1" as="geometry">
                        <mxPoint y="1" as="offset"/>
                    </mxGeometry>
                </mxCell>
                <mxCell id="6s27l5ecv5DC3e-yi6R3-46" style="rounded=0;orthogonalLoop=1;jettySize=auto;html=1;exitX=1;exitY=0.5;exitDx=0;exitDy=0;entryX=0;entryY=0.5;entryDx=0;entryDy=0;dashed=1;dashPattern=12 12;" parent="1" source="3_p0a6_mJ6wkiOOG4HJC-32" target="y_2Z9cbgFEfBiP4_PbCz-8" edge="1">
                    <mxGeometry relative="1" as="geometry">
                        <mxPoint x="430" y="2239" as="sourcePoint"/>
                        <mxPoint x="1290" y="3365" as="targetPoint"/>
                    </mxGeometry>
                </mxCell>
                <mxCell id="6s27l5ecv5DC3e-yi6R3-47" value="&amp;lt;&amp;lt; include &amp;gt;&amp;gt;" style="edgeLabel;html=1;align=center;verticalAlign=middle;resizable=0;points=[];" parent="6s27l5ecv5DC3e-yi6R3-46" vertex="1" connectable="0">
                    <mxGeometry x="-0.2127" y="7" relative="1" as="geometry">
                        <mxPoint y="1" as="offset"/>
                    </mxGeometry>
                </mxCell>
                <mxCell id="6s27l5ecv5DC3e-yi6R3-48" style="rounded=0;orthogonalLoop=1;jettySize=auto;html=1;exitX=1;exitY=0.5;exitDx=0;exitDy=0;entryX=0;entryY=0.5;entryDx=0;entryDy=0;dashed=1;dashPattern=12 12;" parent="1" source="3_p0a6_mJ6wkiOOG4HJC-31" target="y_2Z9cbgFEfBiP4_PbCz-8" edge="1">
                    <mxGeometry relative="1" as="geometry">
                        <mxPoint x="430" y="2329" as="sourcePoint"/>
                        <mxPoint x="1300" y="3375" as="targetPoint"/>
                    </mxGeometry>
                </mxCell>
                <mxCell id="6s27l5ecv5DC3e-yi6R3-49" value="&amp;lt;&amp;lt; include &amp;gt;&amp;gt;" style="edgeLabel;html=1;align=center;verticalAlign=middle;resizable=0;points=[];" parent="6s27l5ecv5DC3e-yi6R3-48" vertex="1" connectable="0">
                    <mxGeometry x="-0.2127" y="7" relative="1" as="geometry">
                        <mxPoint y="1" as="offset"/>
                    </mxGeometry>
                </mxCell>
                <mxCell id="6s27l5ecv5DC3e-yi6R3-50" style="rounded=0;orthogonalLoop=1;jettySize=auto;html=1;exitX=1;exitY=0.5;exitDx=0;exitDy=0;entryX=0;entryY=0.5;entryDx=0;entryDy=0;dashed=1;dashPattern=12 12;" parent="1" source="3_p0a6_mJ6wkiOOG4HJC-34" target="y_2Z9cbgFEfBiP4_PbCz-8" edge="1">
                    <mxGeometry relative="1" as="geometry">
                        <mxPoint x="430" y="2420" as="sourcePoint"/>
                        <mxPoint x="1310" y="3385" as="targetPoint"/>
                    </mxGeometry>
                </mxCell>
                <mxCell id="6s27l5ecv5DC3e-yi6R3-51" value="&amp;lt;&amp;lt; include &amp;gt;&amp;gt;" style="edgeLabel;html=1;align=center;verticalAlign=middle;resizable=0;points=[];" parent="6s27l5ecv5DC3e-yi6R3-50" vertex="1" connectable="0">
                    <mxGeometry x="-0.2127" y="7" relative="1" as="geometry">
                        <mxPoint y="1" as="offset"/>
                    </mxGeometry>
                </mxCell>
                <mxCell id="6s27l5ecv5DC3e-yi6R3-52" style="rounded=0;orthogonalLoop=1;jettySize=auto;html=1;exitX=1;exitY=0.5;exitDx=0;exitDy=0;entryX=0;entryY=0.5;entryDx=0;entryDy=0;dashed=1;dashPattern=12 12;" parent="1" source="3_p0a6_mJ6wkiOOG4HJC-102" target="y_2Z9cbgFEfBiP4_PbCz-8" edge="1">
                    <mxGeometry relative="1" as="geometry">
                        <mxPoint x="430" y="2550" as="sourcePoint"/>
                        <mxPoint x="1320" y="3395" as="targetPoint"/>
                    </mxGeometry>
                </mxCell>
                <mxCell id="6s27l5ecv5DC3e-yi6R3-53" value="&amp;lt;&amp;lt; include &amp;gt;&amp;gt;" style="edgeLabel;html=1;align=center;verticalAlign=middle;resizable=0;points=[];" parent="6s27l5ecv5DC3e-yi6R3-52" vertex="1" connectable="0">
                    <mxGeometry x="-0.2127" y="7" relative="1" as="geometry">
                        <mxPoint y="1" as="offset"/>
                    </mxGeometry>
                </mxCell>
                <mxCell id="6s27l5ecv5DC3e-yi6R3-54" style="rounded=0;orthogonalLoop=1;jettySize=auto;html=1;exitX=1;exitY=0.5;exitDx=0;exitDy=0;entryX=0;entryY=0.5;entryDx=0;entryDy=0;dashed=1;dashPattern=12 12;" parent="1" source="3_p0a6_mJ6wkiOOG4HJC-38" target="y_2Z9cbgFEfBiP4_PbCz-8" edge="1">
                    <mxGeometry relative="1" as="geometry">
                        <mxPoint x="430" y="2635" as="sourcePoint"/>
                        <mxPoint x="1330" y="3405" as="targetPoint"/>
                    </mxGeometry>
                </mxCell>
                <mxCell id="6s27l5ecv5DC3e-yi6R3-55" value="&amp;lt;&amp;lt; include &amp;gt;&amp;gt;" style="edgeLabel;html=1;align=center;verticalAlign=middle;resizable=0;points=[];" parent="6s27l5ecv5DC3e-yi6R3-54" vertex="1" connectable="0">
                    <mxGeometry x="-0.2127" y="7" relative="1" as="geometry">
                        <mxPoint y="1" as="offset"/>
                    </mxGeometry>
                </mxCell>
                <mxCell id="6s27l5ecv5DC3e-yi6R3-56" style="rounded=0;orthogonalLoop=1;jettySize=auto;html=1;exitX=1;exitY=0.5;exitDx=0;exitDy=0;entryX=0;entryY=0.5;entryDx=0;entryDy=0;dashed=1;dashPattern=12 12;" parent="1" source="3_p0a6_mJ6wkiOOG4HJC-35" target="y_2Z9cbgFEfBiP4_PbCz-8" edge="1">
                    <mxGeometry relative="1" as="geometry">
                        <mxPoint x="430" y="2725" as="sourcePoint"/>
                        <mxPoint x="1340" y="3415" as="targetPoint"/>
                    </mxGeometry>
                </mxCell>
                <mxCell id="6s27l5ecv5DC3e-yi6R3-57" value="&amp;lt;&amp;lt; include &amp;gt;&amp;gt;" style="edgeLabel;html=1;align=center;verticalAlign=middle;resizable=0;points=[];" parent="6s27l5ecv5DC3e-yi6R3-56" vertex="1" connectable="0">
                    <mxGeometry x="-0.2127" y="7" relative="1" as="geometry">
                        <mxPoint y="1" as="offset"/>
                    </mxGeometry>
                </mxCell>
                <mxCell id="6s27l5ecv5DC3e-yi6R3-58" style="rounded=0;orthogonalLoop=1;jettySize=auto;html=1;exitX=1;exitY=0.5;exitDx=0;exitDy=0;entryX=0;entryY=0.5;entryDx=0;entryDy=0;dashed=1;dashPattern=12 12;" parent="1" source="3_p0a6_mJ6wkiOOG4HJC-37" target="y_2Z9cbgFEfBiP4_PbCz-8" edge="1">
                    <mxGeometry relative="1" as="geometry">
                        <mxPoint x="430" y="2811" as="sourcePoint"/>
                        <mxPoint x="1350" y="3425" as="targetPoint"/>
                    </mxGeometry>
                </mxCell>
                <mxCell id="6s27l5ecv5DC3e-yi6R3-59" value="&amp;lt;&amp;lt; include &amp;gt;&amp;gt;" style="edgeLabel;html=1;align=center;verticalAlign=middle;resizable=0;points=[];" parent="6s27l5ecv5DC3e-yi6R3-58" vertex="1" connectable="0">
                    <mxGeometry x="-0.2127" y="7" relative="1" as="geometry">
                        <mxPoint y="1" as="offset"/>
                    </mxGeometry>
                </mxCell>
                <mxCell id="6s27l5ecv5DC3e-yi6R3-60" style="rounded=0;orthogonalLoop=1;jettySize=auto;html=1;exitX=1;exitY=0.5;exitDx=0;exitDy=0;entryX=0;entryY=0.5;entryDx=0;entryDy=0;dashed=1;dashPattern=12 12;" parent="1" source="3_p0a6_mJ6wkiOOG4HJC-36" target="y_2Z9cbgFEfBiP4_PbCz-8" edge="1">
                    <mxGeometry relative="1" as="geometry">
                        <mxPoint x="430" y="2901" as="sourcePoint"/>
                        <mxPoint x="1360" y="3435" as="targetPoint"/>
                    </mxGeometry>
                </mxCell>
                <mxCell id="6s27l5ecv5DC3e-yi6R3-61" value="&amp;lt;&amp;lt; include &amp;gt;&amp;gt;" style="edgeLabel;html=1;align=center;verticalAlign=middle;resizable=0;points=[];" parent="6s27l5ecv5DC3e-yi6R3-60" vertex="1" connectable="0">
                    <mxGeometry x="-0.2127" y="7" relative="1" as="geometry">
                        <mxPoint y="1" as="offset"/>
                    </mxGeometry>
                </mxCell>
                <mxCell id="6s27l5ecv5DC3e-yi6R3-62" style="rounded=0;orthogonalLoop=1;jettySize=auto;html=1;exitX=1;exitY=0.5;exitDx=0;exitDy=0;entryX=0;entryY=0.5;entryDx=0;entryDy=0;dashed=1;dashPattern=12 12;" parent="1" source="3_p0a6_mJ6wkiOOG4HJC-39" target="y_2Z9cbgFEfBiP4_PbCz-8" edge="1">
                    <mxGeometry relative="1" as="geometry">
                        <mxPoint x="430" y="2992" as="sourcePoint"/>
                        <mxPoint x="1370" y="3445" as="targetPoint"/>
                    </mxGeometry>
                </mxCell>
                <mxCell id="6s27l5ecv5DC3e-yi6R3-63" value="&amp;lt;&amp;lt; include &amp;gt;&amp;gt;" style="edgeLabel;html=1;align=center;verticalAlign=middle;resizable=0;points=[];" parent="6s27l5ecv5DC3e-yi6R3-62" vertex="1" connectable="0">
                    <mxGeometry x="-0.2127" y="7" relative="1" as="geometry">
                        <mxPoint y="1" as="offset"/>
                    </mxGeometry>
                </mxCell>
                <mxCell id="6s27l5ecv5DC3e-yi6R3-64" style="rounded=0;orthogonalLoop=1;jettySize=auto;html=1;exitX=1;exitY=0.5;exitDx=0;exitDy=0;entryX=0;entryY=0.5;entryDx=0;entryDy=0;dashed=1;dashPattern=12 12;" parent="1" source="3_p0a6_mJ6wkiOOG4HJC-43" target="y_2Z9cbgFEfBiP4_PbCz-8" edge="1">
                    <mxGeometry relative="1" as="geometry">
                        <mxPoint x="435" y="3120" as="sourcePoint"/>
                        <mxPoint x="1380" y="3455" as="targetPoint"/>
                    </mxGeometry>
                </mxCell>
                <mxCell id="6s27l5ecv5DC3e-yi6R3-65" value="&amp;lt;&amp;lt; include &amp;gt;&amp;gt;" style="edgeLabel;html=1;align=center;verticalAlign=middle;resizable=0;points=[];" parent="6s27l5ecv5DC3e-yi6R3-64" vertex="1" connectable="0">
                    <mxGeometry x="-0.2127" y="7" relative="1" as="geometry">
                        <mxPoint y="1" as="offset"/>
                    </mxGeometry>
                </mxCell>
                <mxCell id="6s27l5ecv5DC3e-yi6R3-66" style="rounded=0;orthogonalLoop=1;jettySize=auto;html=1;exitX=1;exitY=0.5;exitDx=0;exitDy=0;entryX=0;entryY=0.5;entryDx=0;entryDy=0;dashed=1;dashPattern=12 12;" parent="1" source="3_p0a6_mJ6wkiOOG4HJC-40" target="y_2Z9cbgFEfBiP4_PbCz-8" edge="1">
                    <mxGeometry relative="1" as="geometry">
                        <mxPoint x="430" y="3321" as="sourcePoint"/>
                        <mxPoint x="1390" y="3465" as="targetPoint"/>
                    </mxGeometry>
                </mxCell>
                <mxCell id="6s27l5ecv5DC3e-yi6R3-67" value="&amp;lt;&amp;lt; include &amp;gt;&amp;gt;" style="edgeLabel;html=1;align=center;verticalAlign=middle;resizable=0;points=[];" parent="6s27l5ecv5DC3e-yi6R3-66" vertex="1" connectable="0">
                    <mxGeometry x="-0.2127" y="7" relative="1" as="geometry">
                        <mxPoint y="1" as="offset"/>
                    </mxGeometry>
                </mxCell>
                <mxCell id="6s27l5ecv5DC3e-yi6R3-68" style="rounded=0;orthogonalLoop=1;jettySize=auto;html=1;exitX=1;exitY=0.5;exitDx=0;exitDy=0;entryX=0;entryY=0.5;entryDx=0;entryDy=0;dashed=1;dashPattern=12 12;" parent="1" source="3_p0a6_mJ6wkiOOG4HJC-42" target="y_2Z9cbgFEfBiP4_PbCz-8" edge="1">
                    <mxGeometry relative="1" as="geometry">
                        <mxPoint x="430" y="3419" as="sourcePoint"/>
                        <mxPoint x="1400" y="3475" as="targetPoint"/>
                    </mxGeometry>
                </mxCell>
                <mxCell id="6s27l5ecv5DC3e-yi6R3-69" value="&amp;lt;&amp;lt; include &amp;gt;&amp;gt;" style="edgeLabel;html=1;align=center;verticalAlign=middle;resizable=0;points=[];" parent="6s27l5ecv5DC3e-yi6R3-68" vertex="1" connectable="0">
                    <mxGeometry x="-0.2127" y="7" relative="1" as="geometry">
                        <mxPoint y="1" as="offset"/>
                    </mxGeometry>
                </mxCell>
                <mxCell id="6s27l5ecv5DC3e-yi6R3-70" style="rounded=0;orthogonalLoop=1;jettySize=auto;html=1;exitX=1;exitY=0.5;exitDx=0;exitDy=0;entryX=0;entryY=0.5;entryDx=0;entryDy=0;dashed=1;dashPattern=12 12;" parent="1" source="3_p0a6_mJ6wkiOOG4HJC-41" target="y_2Z9cbgFEfBiP4_PbCz-8" edge="1">
                    <mxGeometry relative="1" as="geometry">
                        <mxPoint x="430" y="3509" as="sourcePoint"/>
                        <mxPoint x="1410" y="3485" as="targetPoint"/>
                    </mxGeometry>
                </mxCell>
                <mxCell id="6s27l5ecv5DC3e-yi6R3-71" value="&amp;lt;&amp;lt; include &amp;gt;&amp;gt;" style="edgeLabel;html=1;align=center;verticalAlign=middle;resizable=0;points=[];" parent="6s27l5ecv5DC3e-yi6R3-70" vertex="1" connectable="0">
                    <mxGeometry x="-0.2127" y="7" relative="1" as="geometry">
                        <mxPoint y="1" as="offset"/>
                    </mxGeometry>
                </mxCell>
                <mxCell id="6s27l5ecv5DC3e-yi6R3-75" style="rounded=0;orthogonalLoop=1;jettySize=auto;html=1;exitX=1;exitY=0.5;exitDx=0;exitDy=0;entryX=0;entryY=0.5;entryDx=0;entryDy=0;dashed=1;dashPattern=12 12;" parent="1" source="3_p0a6_mJ6wkiOOG4HJC-44" target="y_2Z9cbgFEfBiP4_PbCz-8" edge="1">
                    <mxGeometry relative="1" as="geometry">
                        <mxPoint x="430" y="3600" as="sourcePoint"/>
                        <mxPoint x="1090" y="3165" as="targetPoint"/>
                    </mxGeometry>
                </mxCell>
                <mxCell id="6s27l5ecv5DC3e-yi6R3-76" value="&amp;lt;&amp;lt; include &amp;gt;&amp;gt;" style="edgeLabel;html=1;align=center;verticalAlign=middle;resizable=0;points=[];" parent="6s27l5ecv5DC3e-yi6R3-75" vertex="1" connectable="0">
                    <mxGeometry x="-0.2127" y="7" relative="1" as="geometry">
                        <mxPoint y="1" as="offset"/>
                    </mxGeometry>
                </mxCell>
                <mxCell id="6s27l5ecv5DC3e-yi6R3-77" style="rounded=0;orthogonalLoop=1;jettySize=auto;html=1;exitX=1;exitY=0.5;exitDx=0;exitDy=0;entryX=0;entryY=0.5;entryDx=0;entryDy=0;dashed=1;dashPattern=12 12;" parent="1" source="3_p0a6_mJ6wkiOOG4HJC-112" target="y_2Z9cbgFEfBiP4_PbCz-8" edge="1">
                    <mxGeometry relative="1" as="geometry">
                        <mxPoint x="436" y="3721" as="sourcePoint"/>
                        <mxPoint x="1090" y="3165" as="targetPoint"/>
                    </mxGeometry>
                </mxCell>
                <mxCell id="6s27l5ecv5DC3e-yi6R3-78" value="&amp;lt;&amp;lt; include &amp;gt;&amp;gt;" style="edgeLabel;html=1;align=center;verticalAlign=middle;resizable=0;points=[];" parent="6s27l5ecv5DC3e-yi6R3-77" vertex="1" connectable="0">
                    <mxGeometry x="-0.2127" y="7" relative="1" as="geometry">
                        <mxPoint y="1" as="offset"/>
                    </mxGeometry>
                </mxCell>
                <mxCell id="6s27l5ecv5DC3e-yi6R3-79" style="rounded=0;orthogonalLoop=1;jettySize=auto;html=1;exitX=1;exitY=0.5;exitDx=0;exitDy=0;entryX=0;entryY=0.5;entryDx=0;entryDy=0;dashed=1;dashPattern=12 12;" parent="1" source="3_p0a6_mJ6wkiOOG4HJC-48" target="y_2Z9cbgFEfBiP4_PbCz-8" edge="1">
                    <mxGeometry relative="1" as="geometry">
                        <mxPoint x="435" y="3823" as="sourcePoint"/>
                        <mxPoint x="1090" y="3165" as="targetPoint"/>
                    </mxGeometry>
                </mxCell>
                <mxCell id="6s27l5ecv5DC3e-yi6R3-80" value="&amp;lt;&amp;lt; include &amp;gt;&amp;gt;" style="edgeLabel;html=1;align=center;verticalAlign=middle;resizable=0;points=[];" parent="6s27l5ecv5DC3e-yi6R3-79" vertex="1" connectable="0">
                    <mxGeometry x="-0.2127" y="7" relative="1" as="geometry">
                        <mxPoint y="1" as="offset"/>
                    </mxGeometry>
                </mxCell>
                <mxCell id="6s27l5ecv5DC3e-yi6R3-81" style="rounded=0;orthogonalLoop=1;jettySize=auto;html=1;exitX=1;exitY=0.5;exitDx=0;exitDy=0;dashed=1;dashPattern=12 12;entryX=0;entryY=0.5;entryDx=0;entryDy=0;" parent="1" source="3_p0a6_mJ6wkiOOG4HJC-45" target="y_2Z9cbgFEfBiP4_PbCz-8" edge="1">
                    <mxGeometry relative="1" as="geometry">
                        <mxPoint x="430" y="3927" as="sourcePoint"/>
                        <mxPoint x="1100" y="3175" as="targetPoint"/>
                    </mxGeometry>
                </mxCell>
                <mxCell id="6s27l5ecv5DC3e-yi6R3-82" value="&amp;lt;&amp;lt; include &amp;gt;&amp;gt;" style="edgeLabel;html=1;align=center;verticalAlign=middle;resizable=0;points=[];" parent="6s27l5ecv5DC3e-yi6R3-81" vertex="1" connectable="0">
                    <mxGeometry x="-0.2127" y="7" relative="1" as="geometry">
                        <mxPoint y="1" as="offset"/>
                    </mxGeometry>
                </mxCell>
                <mxCell id="6s27l5ecv5DC3e-yi6R3-83" style="rounded=0;orthogonalLoop=1;jettySize=auto;html=1;exitX=1;exitY=0.5;exitDx=0;exitDy=0;entryX=0;entryY=0.5;entryDx=0;entryDy=0;dashed=1;dashPattern=12 12;" parent="1" source="3_p0a6_mJ6wkiOOG4HJC-47" target="y_2Z9cbgFEfBiP4_PbCz-8" edge="1">
                    <mxGeometry relative="1" as="geometry">
                        <mxPoint x="430" y="4015" as="sourcePoint"/>
                        <mxPoint x="1110" y="3185" as="targetPoint"/>
                    </mxGeometry>
                </mxCell>
                <mxCell id="6s27l5ecv5DC3e-yi6R3-84" value="&amp;lt;&amp;lt; include &amp;gt;&amp;gt;" style="edgeLabel;html=1;align=center;verticalAlign=middle;resizable=0;points=[];" parent="6s27l5ecv5DC3e-yi6R3-83" vertex="1" connectable="0">
                    <mxGeometry x="-0.2127" y="7" relative="1" as="geometry">
                        <mxPoint y="1" as="offset"/>
                    </mxGeometry>
                </mxCell>
                <mxCell id="6s27l5ecv5DC3e-yi6R3-85" style="rounded=0;orthogonalLoop=1;jettySize=auto;html=1;exitX=1;exitY=0.5;exitDx=0;exitDy=0;dashed=1;dashPattern=12 12;entryX=0;entryY=0.5;entryDx=0;entryDy=0;" parent="1" source="3_p0a6_mJ6wkiOOG4HJC-46" target="y_2Z9cbgFEfBiP4_PbCz-8" edge="1">
                    <mxGeometry relative="1" as="geometry">
                        <mxPoint x="430" y="4105" as="sourcePoint"/>
                        <mxPoint x="1120" y="3195" as="targetPoint"/>
                    </mxGeometry>
                </mxCell>
                <mxCell id="6s27l5ecv5DC3e-yi6R3-86" value="&amp;lt;&amp;lt; include &amp;gt;&amp;gt;" style="edgeLabel;html=1;align=center;verticalAlign=middle;resizable=0;points=[];" parent="6s27l5ecv5DC3e-yi6R3-85" vertex="1" connectable="0">
                    <mxGeometry x="-0.2127" y="7" relative="1" as="geometry">
                        <mxPoint y="1" as="offset"/>
                    </mxGeometry>
                </mxCell>
                <mxCell id="6s27l5ecv5DC3e-yi6R3-87" style="rounded=0;orthogonalLoop=1;jettySize=auto;html=1;exitX=1;exitY=0.5;exitDx=0;exitDy=0;entryX=0;entryY=0.5;entryDx=0;entryDy=0;dashed=1;dashPattern=12 12;" parent="1" source="y_2Z9cbgFEfBiP4_PbCz-85" target="y_2Z9cbgFEfBiP4_PbCz-8" edge="1">
                    <mxGeometry relative="1" as="geometry">
                        <mxPoint x="430" y="4196" as="sourcePoint"/>
                        <mxPoint x="1130" y="3205" as="targetPoint"/>
                    </mxGeometry>
                </mxCell>
                <mxCell id="6s27l5ecv5DC3e-yi6R3-88" value="&amp;lt;&amp;lt; include &amp;gt;&amp;gt;" style="edgeLabel;html=1;align=center;verticalAlign=middle;resizable=0;points=[];" parent="6s27l5ecv5DC3e-yi6R3-87" vertex="1" connectable="0">
                    <mxGeometry x="-0.2127" y="7" relative="1" as="geometry">
                        <mxPoint y="1" as="offset"/>
                    </mxGeometry>
                </mxCell>
                <mxCell id="6s27l5ecv5DC3e-yi6R3-89" style="rounded=0;orthogonalLoop=1;jettySize=auto;html=1;exitX=1;exitY=0;exitDx=0;exitDy=0;entryX=0;entryY=0.5;entryDx=0;entryDy=0;dashed=1;dashPattern=12 12;" parent="1" source="3_p0a6_mJ6wkiOOG4HJC-50" target="y_2Z9cbgFEfBiP4_PbCz-8" edge="1">
                    <mxGeometry relative="1" as="geometry">
                        <mxPoint x="580" y="4251" as="sourcePoint"/>
                        <mxPoint x="1090" y="3165" as="targetPoint"/>
                    </mxGeometry>
                </mxCell>
                <mxCell id="6s27l5ecv5DC3e-yi6R3-90" value="&amp;lt;&amp;lt; include &amp;gt;&amp;gt;" style="edgeLabel;html=1;align=center;verticalAlign=middle;resizable=0;points=[];" parent="6s27l5ecv5DC3e-yi6R3-89" vertex="1" connectable="0">
                    <mxGeometry x="-0.2127" y="7" relative="1" as="geometry">
                        <mxPoint y="1" as="offset"/>
                    </mxGeometry>
                </mxCell>
                <mxCell id="6s27l5ecv5DC3e-yi6R3-91" style="rounded=0;orthogonalLoop=1;jettySize=auto;html=1;exitX=0.5;exitY=0;exitDx=0;exitDy=0;dashed=1;dashPattern=12 12;entryX=0;entryY=0.5;entryDx=0;entryDy=0;" parent="1" source="3_p0a6_mJ6wkiOOG4HJC-74" target="y_2Z9cbgFEfBiP4_PbCz-8" edge="1">
                    <mxGeometry relative="1" as="geometry">
                        <mxPoint x="405" y="4303" as="sourcePoint"/>
                        <mxPoint x="1090" y="3165" as="targetPoint"/>
                    </mxGeometry>
                </mxCell>
                <mxCell id="6s27l5ecv5DC3e-yi6R3-92" value="&amp;lt;&amp;lt; include &amp;gt;&amp;gt;" style="edgeLabel;html=1;align=center;verticalAlign=middle;resizable=0;points=[];" parent="6s27l5ecv5DC3e-yi6R3-91" vertex="1" connectable="0">
                    <mxGeometry x="-0.2127" y="7" relative="1" as="geometry">
                        <mxPoint y="1" as="offset"/>
                    </mxGeometry>
                </mxCell>
                <mxCell id="6s27l5ecv5DC3e-yi6R3-93" style="rounded=0;orthogonalLoop=1;jettySize=auto;html=1;exitX=1;exitY=0.5;exitDx=0;exitDy=0;entryX=0;entryY=0.5;entryDx=0;entryDy=0;dashed=1;dashPattern=12 12;" parent="1" source="3_p0a6_mJ6wkiOOG4HJC-75" target="y_2Z9cbgFEfBiP4_PbCz-8" edge="1">
                    <mxGeometry relative="1" as="geometry">
                        <mxPoint x="630" y="4280" as="sourcePoint"/>
                        <mxPoint x="1090" y="3165" as="targetPoint"/>
                    </mxGeometry>
                </mxCell>
                <mxCell id="6s27l5ecv5DC3e-yi6R3-94" value="&amp;lt;&amp;lt; include &amp;gt;&amp;gt;" style="edgeLabel;html=1;align=center;verticalAlign=middle;resizable=0;points=[];" parent="6s27l5ecv5DC3e-yi6R3-93" vertex="1" connectable="0">
                    <mxGeometry x="-0.2127" y="7" relative="1" as="geometry">
                        <mxPoint y="1" as="offset"/>
                    </mxGeometry>
                </mxCell>
                <mxCell id="6s27l5ecv5DC3e-yi6R3-95" style="rounded=0;orthogonalLoop=1;jettySize=auto;html=1;exitX=1;exitY=0.5;exitDx=0;exitDy=0;entryX=0;entryY=0.5;entryDx=0;entryDy=0;dashed=1;dashPattern=12 12;" parent="1" source="3_p0a6_mJ6wkiOOG4HJC-51" target="y_2Z9cbgFEfBiP4_PbCz-8" edge="1">
                    <mxGeometry relative="1" as="geometry">
                        <mxPoint x="430" y="4553" as="sourcePoint"/>
                        <mxPoint x="1100" y="3175" as="targetPoint"/>
                    </mxGeometry>
                </mxCell>
                <mxCell id="6s27l5ecv5DC3e-yi6R3-96" value="&amp;lt;&amp;lt; include &amp;gt;&amp;gt;" style="edgeLabel;html=1;align=center;verticalAlign=middle;resizable=0;points=[];" parent="6s27l5ecv5DC3e-yi6R3-95" vertex="1" connectable="0">
                    <mxGeometry x="-0.2127" y="7" relative="1" as="geometry">
                        <mxPoint y="1" as="offset"/>
                    </mxGeometry>
                </mxCell>
                <mxCell id="6s27l5ecv5DC3e-yi6R3-99" style="rounded=0;orthogonalLoop=1;jettySize=auto;html=1;exitX=1;exitY=0.5;exitDx=0;exitDy=0;entryX=0;entryY=0.5;entryDx=0;entryDy=0;dashed=1;dashPattern=12 12;" parent="1" source="3_p0a6_mJ6wkiOOG4HJC-52" target="y_2Z9cbgFEfBiP4_PbCz-8" edge="1">
                    <mxGeometry relative="1" as="geometry">
                        <mxPoint x="431" y="4740" as="sourcePoint"/>
                        <mxPoint x="1120" y="3195" as="targetPoint"/>
                    </mxGeometry>
                </mxCell>
                <mxCell id="6s27l5ecv5DC3e-yi6R3-100" value="&amp;lt;&amp;lt; include &amp;gt;&amp;gt;" style="edgeLabel;html=1;align=center;verticalAlign=middle;resizable=0;points=[];" parent="6s27l5ecv5DC3e-yi6R3-99" vertex="1" connectable="0">
                    <mxGeometry x="-0.2127" y="7" relative="1" as="geometry">
                        <mxPoint y="1" as="offset"/>
                    </mxGeometry>
                </mxCell>
                <mxCell id="6s27l5ecv5DC3e-yi6R3-103" style="rounded=0;orthogonalLoop=1;jettySize=auto;html=1;exitX=1;exitY=0.5;exitDx=0;exitDy=0;entryX=0;entryY=0.5;entryDx=0;entryDy=0;dashed=1;dashPattern=12 12;" parent="1" source="3_p0a6_mJ6wkiOOG4HJC-55" target="y_2Z9cbgFEfBiP4_PbCz-8" edge="1">
                    <mxGeometry relative="1" as="geometry">
                        <mxPoint x="431" y="4973" as="sourcePoint"/>
                        <mxPoint x="1140" y="3215" as="targetPoint"/>
                    </mxGeometry>
                </mxCell>
                <mxCell id="6s27l5ecv5DC3e-yi6R3-104" value="&amp;lt;&amp;lt; include &amp;gt;&amp;gt;" style="edgeLabel;html=1;align=center;verticalAlign=middle;resizable=0;points=[];" parent="6s27l5ecv5DC3e-yi6R3-103" vertex="1" connectable="0">
                    <mxGeometry x="-0.2127" y="7" relative="1" as="geometry">
                        <mxPoint y="1" as="offset"/>
                    </mxGeometry>
                </mxCell>
                <mxCell id="6s27l5ecv5DC3e-yi6R3-105" style="rounded=0;orthogonalLoop=1;jettySize=auto;html=1;exitX=1;exitY=0.5;exitDx=0;exitDy=0;entryX=0;entryY=0.5;entryDx=0;entryDy=0;dashed=1;dashPattern=12 12;" parent="1" source="3_p0a6_mJ6wkiOOG4HJC-57" target="y_2Z9cbgFEfBiP4_PbCz-8" edge="1">
                    <mxGeometry relative="1" as="geometry">
                        <mxPoint x="431" y="5063" as="sourcePoint"/>
                        <mxPoint x="1150" y="3225" as="targetPoint"/>
                    </mxGeometry>
                </mxCell>
                <mxCell id="6s27l5ecv5DC3e-yi6R3-106" value="&amp;lt;&amp;lt; include &amp;gt;&amp;gt;" style="edgeLabel;html=1;align=center;verticalAlign=middle;resizable=0;points=[];" parent="6s27l5ecv5DC3e-yi6R3-105" vertex="1" connectable="0">
                    <mxGeometry x="-0.2127" y="7" relative="1" as="geometry">
                        <mxPoint y="1" as="offset"/>
                    </mxGeometry>
                </mxCell>
                <mxCell id="6s27l5ecv5DC3e-yi6R3-107" style="rounded=0;orthogonalLoop=1;jettySize=auto;html=1;exitX=1;exitY=0.5;exitDx=0;exitDy=0;entryX=0;entryY=0.5;entryDx=0;entryDy=0;dashed=1;dashPattern=12 12;" parent="1" source="3_p0a6_mJ6wkiOOG4HJC-56" target="y_2Z9cbgFEfBiP4_PbCz-8" edge="1">
                    <mxGeometry relative="1" as="geometry">
                        <mxPoint x="431" y="5153" as="sourcePoint"/>
                        <mxPoint x="1160" y="3235" as="targetPoint"/>
                    </mxGeometry>
                </mxCell>
                <mxCell id="6s27l5ecv5DC3e-yi6R3-108" value="&amp;lt;&amp;lt; include &amp;gt;&amp;gt;" style="edgeLabel;html=1;align=center;verticalAlign=middle;resizable=0;points=[];" parent="6s27l5ecv5DC3e-yi6R3-107" vertex="1" connectable="0">
                    <mxGeometry x="-0.2127" y="7" relative="1" as="geometry">
                        <mxPoint y="1" as="offset"/>
                    </mxGeometry>
                </mxCell>
                <mxCell id="6s27l5ecv5DC3e-yi6R3-109" style="rounded=0;orthogonalLoop=1;jettySize=auto;html=1;exitX=1;exitY=0.5;exitDx=0;exitDy=0;entryX=0;entryY=0.5;entryDx=0;entryDy=0;dashed=1;dashPattern=12 12;" parent="1" source="3_p0a6_mJ6wkiOOG4HJC-59" target="y_2Z9cbgFEfBiP4_PbCz-8" edge="1">
                    <mxGeometry relative="1" as="geometry">
                        <mxPoint x="431" y="5243" as="sourcePoint"/>
                        <mxPoint x="1170" y="3245" as="targetPoint"/>
                    </mxGeometry>
                </mxCell>
                <mxCell id="6s27l5ecv5DC3e-yi6R3-110" value="&amp;lt;&amp;lt; include &amp;gt;&amp;gt;" style="edgeLabel;html=1;align=center;verticalAlign=middle;resizable=0;points=[];" parent="6s27l5ecv5DC3e-yi6R3-109" vertex="1" connectable="0">
                    <mxGeometry x="-0.2127" y="7" relative="1" as="geometry">
                        <mxPoint y="1" as="offset"/>
                    </mxGeometry>
                </mxCell>
                <mxCell id="6s27l5ecv5DC3e-yi6R3-111" style="rounded=0;orthogonalLoop=1;jettySize=auto;html=1;exitX=1;exitY=0.5;exitDx=0;exitDy=0;entryX=0;entryY=0.5;entryDx=0;entryDy=0;dashed=1;dashPattern=12 12;" parent="1" source="3_p0a6_mJ6wkiOOG4HJC-60" target="y_2Z9cbgFEfBiP4_PbCz-8" edge="1">
                    <mxGeometry relative="1" as="geometry">
                        <mxPoint x="431" y="5371" as="sourcePoint"/>
                        <mxPoint x="1180" y="3255" as="targetPoint"/>
                    </mxGeometry>
                </mxCell>
                <mxCell id="6s27l5ecv5DC3e-yi6R3-112" value="&amp;lt;&amp;lt; include &amp;gt;&amp;gt;" style="edgeLabel;html=1;align=center;verticalAlign=middle;resizable=0;points=[];" parent="6s27l5ecv5DC3e-yi6R3-111" vertex="1" connectable="0">
                    <mxGeometry x="-0.2127" y="7" relative="1" as="geometry">
                        <mxPoint y="1" as="offset"/>
                    </mxGeometry>
                </mxCell>
                <mxCell id="6s27l5ecv5DC3e-yi6R3-113" style="rounded=0;orthogonalLoop=1;jettySize=auto;html=1;exitX=1;exitY=0.5;exitDx=0;exitDy=0;entryX=0;entryY=0.5;entryDx=0;entryDy=0;dashed=1;dashPattern=12 12;" parent="1" source="3_p0a6_mJ6wkiOOG4HJC-62" target="y_2Z9cbgFEfBiP4_PbCz-8" edge="1">
                    <mxGeometry relative="1" as="geometry">
                        <mxPoint x="431" y="5461" as="sourcePoint"/>
                        <mxPoint x="1190" y="3265" as="targetPoint"/>
                    </mxGeometry>
                </mxCell>
                <mxCell id="6s27l5ecv5DC3e-yi6R3-114" value="&amp;lt;&amp;lt; include &amp;gt;&amp;gt;" style="edgeLabel;html=1;align=center;verticalAlign=middle;resizable=0;points=[];" parent="6s27l5ecv5DC3e-yi6R3-113" vertex="1" connectable="0">
                    <mxGeometry x="-0.2127" y="7" relative="1" as="geometry">
                        <mxPoint y="1" as="offset"/>
                    </mxGeometry>
                </mxCell>
                <mxCell id="6s27l5ecv5DC3e-yi6R3-115" style="rounded=0;orthogonalLoop=1;jettySize=auto;html=1;exitX=1;exitY=0.5;exitDx=0;exitDy=0;entryX=0;entryY=0.5;entryDx=0;entryDy=0;dashed=1;dashPattern=12 12;" parent="1" source="3_p0a6_mJ6wkiOOG4HJC-61" target="y_2Z9cbgFEfBiP4_PbCz-8" edge="1">
                    <mxGeometry relative="1" as="geometry">
                        <mxPoint x="431" y="5551" as="sourcePoint"/>
                        <mxPoint x="1200" y="3275" as="targetPoint"/>
                    </mxGeometry>
                </mxCell>
                <mxCell id="6s27l5ecv5DC3e-yi6R3-116" value="&amp;lt;&amp;lt; include &amp;gt;&amp;gt;" style="edgeLabel;html=1;align=center;verticalAlign=middle;resizable=0;points=[];" parent="6s27l5ecv5DC3e-yi6R3-115" vertex="1" connectable="0">
                    <mxGeometry x="-0.2127" y="7" relative="1" as="geometry">
                        <mxPoint y="1" as="offset"/>
                    </mxGeometry>
                </mxCell>
                <mxCell id="6s27l5ecv5DC3e-yi6R3-117" style="rounded=0;orthogonalLoop=1;jettySize=auto;html=1;exitX=1;exitY=0.5;exitDx=0;exitDy=0;entryX=0;entryY=0.5;entryDx=0;entryDy=0;dashed=1;dashPattern=12 12;" parent="1" source="y_2Z9cbgFEfBiP4_PbCz-44" target="y_2Z9cbgFEfBiP4_PbCz-8" edge="1">
                    <mxGeometry relative="1" as="geometry">
                        <mxPoint x="431" y="5641" as="sourcePoint"/>
                        <mxPoint x="1210" y="3285" as="targetPoint"/>
                    </mxGeometry>
                </mxCell>
                <mxCell id="6s27l5ecv5DC3e-yi6R3-118" value="&amp;lt;&amp;lt; include &amp;gt;&amp;gt;" style="edgeLabel;html=1;align=center;verticalAlign=middle;resizable=0;points=[];" parent="6s27l5ecv5DC3e-yi6R3-117" vertex="1" connectable="0">
                    <mxGeometry x="-0.2127" y="7" relative="1" as="geometry">
                        <mxPoint y="1" as="offset"/>
                    </mxGeometry>
                </mxCell>
                <mxCell id="6s27l5ecv5DC3e-yi6R3-119" style="rounded=0;orthogonalLoop=1;jettySize=auto;html=1;exitX=1;exitY=0.5;exitDx=0;exitDy=0;entryX=0;entryY=0.5;entryDx=0;entryDy=0;dashed=1;dashPattern=12 12;" parent="1" source="y_2Z9cbgFEfBiP4_PbCz-45" target="y_2Z9cbgFEfBiP4_PbCz-8" edge="1">
                    <mxGeometry relative="1" as="geometry">
                        <mxPoint x="431" y="5730" as="sourcePoint"/>
                        <mxPoint x="1220" y="3295" as="targetPoint"/>
                    </mxGeometry>
                </mxCell>
                <mxCell id="6s27l5ecv5DC3e-yi6R3-120" value="&amp;lt;&amp;lt; include &amp;gt;&amp;gt;" style="edgeLabel;html=1;align=center;verticalAlign=middle;resizable=0;points=[];" parent="6s27l5ecv5DC3e-yi6R3-119" vertex="1" connectable="0">
                    <mxGeometry x="-0.2127" y="7" relative="1" as="geometry">
                        <mxPoint y="1" as="offset"/>
                    </mxGeometry>
                </mxCell>
                <mxCell id="2" value="buy fishing equipement" style="ellipse;whiteSpace=wrap;html=1;" vertex="1" parent="1">
                    <mxGeometry x="350" y="4460" width="90" height="70" as="geometry"/>
                </mxCell>
                <mxCell id="3" style="rounded=0;orthogonalLoop=1;jettySize=auto;html=1;exitX=0.5;exitY=0.5;exitDx=0;exitDy=0;exitPerimeter=0;entryX=0;entryY=0.5;entryDx=0;entryDy=0;endArrow=none;endFill=0;" edge="1" parent="1" source="3_p0a6_mJ6wkiOOG4HJC-73" target="2">
                    <mxGeometry relative="1" as="geometry">
                        <mxPoint x="-755" y="5380.000000000001" as="sourcePoint"/>
                        <mxPoint x="310" y="4430" as="targetPoint"/>
                    </mxGeometry>
                </mxCell>
                <mxCell id="4" value="apply to &lt;br&gt;job offer" style="ellipse;whiteSpace=wrap;html=1;" vertex="1" parent="1">
                    <mxGeometry x="326" y="5780" width="100" height="80" as="geometry"/>
                </mxCell>
                <mxCell id="5" style="edgeStyle=none;rounded=0;orthogonalLoop=1;jettySize=auto;html=1;exitX=0.5;exitY=0.5;exitDx=0;exitDy=0;exitPerimeter=0;endArrow=none;endFill=0;entryX=0;entryY=0.5;entryDx=0;entryDy=0;" edge="1" parent="1" source="3_p0a6_mJ6wkiOOG4HJC-66" target="4">
                    <mxGeometry relative="1" as="geometry">
                        <mxPoint x="331.00000000002046" y="5730.000000000001" as="targetPoint"/>
                        <mxPoint x="-1268.0000000000002" y="4680" as="sourcePoint"/>
                    </mxGeometry>
                </mxCell>
                <mxCell id="6" style="rounded=0;orthogonalLoop=1;jettySize=auto;html=1;exitX=1;exitY=0.5;exitDx=0;exitDy=0;entryX=0;entryY=0.5;entryDx=0;entryDy=0;dashed=1;dashPattern=12 12;" edge="1" parent="1" source="4" target="y_2Z9cbgFEfBiP4_PbCz-8">
                    <mxGeometry relative="1" as="geometry">
                        <mxPoint x="450.00000000002046" y="6010.000000000001" as="sourcePoint"/>
                        <mxPoint x="1090.0000000000164" y="3165" as="targetPoint"/>
                    </mxGeometry>
                </mxCell>
                <mxCell id="7" value="&amp;lt;&amp;lt; include &amp;gt;&amp;gt;" style="edgeLabel;html=1;align=center;verticalAlign=middle;resizable=0;points=[];" vertex="1" connectable="0" parent="6">
                    <mxGeometry x="-0.2127" y="7" relative="1" as="geometry">
                        <mxPoint y="1" as="offset"/>
                    </mxGeometry>
                </mxCell>
            </root>
        </mxGraphModel>
    </diagram>
</mxfile>